<?xml version="1.0" encoding="UTF-8"?>
<svg id="a" data-name=" Слой 1" xmlns="http://www.w3.org/2000/svg" viewBox="0 0 80.56 75.57">
  <defs>
    <style>
      .b {
        fill: none;
      }

      .c {
        fill: #faf9f8;
      }

      .d {
        fill: #0a192b;
      }

      .e {
        fill: #1d1d1b;
      }

      .f {
        fill: #1866b9;
      }

      .g {
        fill: #1866b9;
      }

      .h {
        fill: #fcd2a7;
      }

      .i {
        fill: #fff;
      }

      .j {
        fill: #e30613;
      }

      .k {
        fill: #89a4aa;
      }

      .l {
        fill: #fdc506;
      }

      .m {
        fill: #d4e0dc;
      }

      .n {
        fill: #fcfcfc;
      }

      .o {
        fill: #e72a16;
      }

      .p {
        fill: #99171d;
      }
    </style>
  </defs>
  <g>
    <path class="b" d="M28.01,32.7h0c-.13.37-.07.74,0,1.12.3,1.65,1.59.8,1.32-.49l.35.49s0,.09,0,.14v.21c0,.06-.14.18-.12.3.07.53.76,1.74.79,2.42,1.04-.15.77-2,.24-2.58-.25-.91-1.68-3.36-2.57-1.61Z"/>
    <path class="b" d="M52.24,11.54c.03-.44-.19-.71-.62-.77-.04,0-.09,0-.14,0l-.28.07c-.06.02-.08.02-.14.07-.24.19-.27.56-.21.84.16.73,1.34.59,1.39-.21Z"/>
    <path class="b" d="M32.47,38.86c.64.29,1.06.72,1.51,1.24l.07-2.44-2.98.42c-.1.58.93.56,1.41.78Z"/>
    <polygon class="b" points="51.41 16.39 51.62 16.5 51.62 12.66 51.41 12.66 51.41 16.39"/>
    <path class="b" d="M32.14,41.5l-.8-.21c.57.24.91.52,1.25,1.05l-.12-.47-.33-.37Z"/>
    <path class="b" d="M50.8,20.46l.63.07c.57-.19.3-1.96.12-2.43l.55.07c.11-.48-.53-1.41-.97-.84-.45.4-.51.97-.56,1.54-.04.56-.03,1.08.23,1.59Z"/>
    <path class="b" d="M40.72,14.96c-.84-.1-1.4-.68-1.87-1.33-.18-.51-.3-.75-.28-1.33.04-1.07.64-1.73,1.46-2.3.72-.28,1.56-.37,2.29-.07.28.12.89.71,1.07.98.91,1.41.3,2.62-.65,3.76.84-.23,1.07-.53,1.55-1.34l.25-.48c.33-1.57-.58-3.54-2.29-3.7-.15-.01-.33,0-.49,0-1.86.04-3.33,1.2-3.4,3.14-.02.62.09,1.23.56,1.68.27.55,1.21,1.19,1.8.98Z"/>
    <polygon class="b" points="29.02 38.71 29.68 38.63 29.61 38.43 29.05 37.31 28.5 37.38 29.02 38.71"/>
    <path class="b" d="M39.26,18.14c-.95-1.82-2.61-.48-2.64,1.12-.02,1.14.99,2.88,2.23,1.92.05-.04.08-.13.14-.18l-.14.11-.5.06c-1.13-.28-1.27-1.69-.95-2.64l.39.28.39-.63-.15-.3c.47-.25.85.08,1.25.28Z"/>
    <path class="b" d="M38.98,13.08c.44,1.6,2.41,2.08,3.68,1.08,1.35-1.06,1.02-3.58-.7-3.95-.06-.01-.03,0-.07,0-.05,0-.09,0-.14,0,0,0,0-.14,0-.14-1.79-.3-3.28,1.19-2.78,3Z"/>
    <path class="b" d="M49.4,18.03c-.02.39.02.79,0,1.19-.04.36.03.78,0,1.15l.21.66.19-.58.51-.26c-.07-.48-.11-.98-.07-1.47.03-.44.13-.77.21-1.19.01-.07.17-.26.21-.35v-.14c.16-.13-.05-.17-.07-.21-.14-.25-.3-.4-.62-.42-.41.07-.53,1.27-.56,1.61Z"/>
    <path class="b" d="M46.13,15.83c.01.09.16.02.21.04.52.19.92.12,1.32.66.65.88.62,4.43-.25,5.19l-1.13.36.24,3.35c1.34-.59,2.88-1.36,3.01-3.02-.54-.4-.63-1.14-.68-1.76-.1-1.12-.21-4.14.76-4.85h0c.07-.05.4-.06.41-.07.13-1.94-1.32-3.59-3.01-4.32-.57.13-.99,3.81-.88,4.42Z"/>
    <path class="b" d="M46.69,11.23c-.53-.28-1.06-.57-1.67-.6h0s-.19-.16-.21-.03c.87,1.7.04,3.89-1.67,4.64-1.28.57-3.2.53-4.3-.42-.42-.36-.53-.83-.83-1.19-.28-.98-.14-1.94.24-2.86l-1.42.61-.21,4.49,9.23-.07c0-1.55.11-3.18.84-4.57Z"/>
    <path class="b" d="M32.32,17.55l-.21.03c-.22.16-.3.41-.35.66h0c-.03.17,0,.44,0,.63-.01.27-.13.49,0,.77l.48-.29c-.04-.33.07-.67.08-.97,0-.17.02-.4,0-.56-.01-.09,0-.19,0-.28Z"/>
    <path class="b" d="M33.5,11.47c-.01-.65-.77-.98-1.18-.42-.29.4-.35.64.07.98.53.44,1.12.06,1.11-.56Z"/>
    <path class="b" d="M32.87,16.18v-3.53h-.28v3.77c.06-.02.28-.23.28-.24Z"/>
    <path class="b" d="M51.04,48.75c-.21.02-.41.03-.61.05"/>
    <path class="b" d="M32.39,32.77l.14-.14s-.21-.05-.14.14Z"/>
    <path class="b" d="M28.44,35.44c-.11-.08-.26.06-.29.06-.11,0-.26-.02-.35,0-.47.1-1.26.56-1.53.98-.02.03-.12.06-.14.14-.21.69.67,1.45,1.32,1.29l.35-.57-.14-.34c1.28.13,1.98-.71.78-1.56Z"/>
    <path class="b" d="M33.36,16.71h0c-.17.04-.27.03-.39.21-.35.44-.34,1.81-.31,2.38,0,.05,0,.09,0,.14.01.17-.02.34.02.51l.15.19c.17-.04.33-.67.38-.84,0-.02,0-.05,0-.07,0,0,.12-.04.14-.14,0-.04,0-.1,0-.14l.07-.49c.05-.11.21-.11.21-.24v-1.57c-.13-.05-.21.05-.28.07Z"/>
    <path class="b" d="M26.28,33.61s.09,0,.14,0c.35-.06.69-.1,1.04-.07v-1.01c-.11-.15-.25-.15-.42-.17-.27-.05-.57.03-.83.07h-.07c-.17.03-.23.1-.35.14-.28.1-.48.12-.73.35-.17.14-.27.26-.31.49-.01.07,0,.2,0,.28,0,.19.11.75.37.76l1.16-.83Z"/>
    <path class="b" d="M26.66,30.4l-.51.43c.25.6.19.87.89.96.09.01.39.15.35-.03-.21-.41-.32-.8-.62-1.15-.03-.04.08-.25-.1-.21Z"/>
    <path class="b" d="M26.83,35.42l1.18-.46-.62-.87c-.39-.16-.53,0-.83.14-.46.02-1.22.38-1.39.84-.04.1-.07.25-.07.35,0,.43.21.78.6.97l.58-.62c.19-.05.4-.23.56-.35Z"/>
    <polygon class="b" points="35.92 40.87 35.93 40.87 35.93 40.2 34.61 39.89 34.68 40.63 35.92 40.87"/>
    <path class="b" d="M35.93,41.15l-1.39-.21-.42,3.84c1.83-.09,1.58-2.34,1.81-3.63Z"/>
    <path class="b" d="M25.86,31.79c.11-.01.38.08.35-.1l-.38-1.15c.29-.22.82-.59,1.15-.28.09.52.61,1.13.7,1.68l.42-.26c.06-.26-.97-2.41-.97-3.14,0-.57.41-.94.55-1.49h0c.57-2.19-.59-4.82-3.02-5.03l-.1.1c1.47,1.47,2.1,4.2-.5,4.88-1.94.51-1.98-.86-2.97-2.05-.08.54-.15,1.22,0,1.75.01.05.01.11.07.14,0,.07-.01.15,0,.21.22,1.06,1.15,2.15,2.22,2.37.91.19,1.82.02,2.71-.14-.48.49-1.31.51-1.94.56.82.34,1.08,1.22,1.42,1.95.19.16.24,0,.31,0Z"/>
    <path class="b" d="M31.27,39.26c-.84-.17-1.17-1.47-1.46-2.23-.11-.29-.16-.65-.28-.98s-.16-.68-.38-.98l-.07.21c.14.22.34.5.39.76h0c.11.59-.18.57,0,1.26.2.77,1.12,1.72-.26,1.87l-.39-.18c-.1-.37-.25-.67-.46-.98-.03-.04.02-.22-.1-.28l-.12.16c-.1.23.07.29.09.4.24,1.24.64,1,.21,2.37-.12.4-.41.72-.47,1.24-.15,1.26.37,2.31,1.58,2.74.27.2.53.32.83.45-.82-1.25-1.62-3.85.59-4.08,1.5-.16,1.6.37,2.05,1.54l.28,1.4c.33-.2.44-.91.48-1.26.22-1.69-.58-3.44-2.5-3.42Z"/>
    <path class="b" d="M57.38,37.69h.5c.09-.39.1-.85,0-1.22-.11-.38-.31-.52-.69-.49v.21h0l.21,1.5Z"/>
    <path class="b" d="M51.06,36.19c.08.02.19-.01.28,0,.21.03.34.16.55.14l-.21-1.05c.34.32.53.74.62,1.19.07.31,0,1.23.17,1.4.43.32,1.22,0,1.22-.53v-1.78s.28,2.1.28,2.1c.42,0,.96.1,1.19-.37l.33-1.51c.03.12.06.42.07.56.03.34.01.72-.07,1.05l.93-.35c.19-.65.27-1.39-.03-2.02,0-.05,0-.1,0-.14,0-.04-.07-.06-.07-.07-.07-.28-.32-.6-.56-.77-1.79-1.37-5.02-.56-4.92,2.07.02.25.19.09.2.1Z"/>
    <path class="b" d="M45.72,41.15c-.1.12.11,2.79.49,3.07h.07l-.25-3.07h-.31Z"/>
    <polygon class="b" points="46 40.87 45.99 40.31 45.71 40.31 45.72 40.87 46 40.87"/>
    <polygon class="b" points="41.84 34.74 42.8 35.56 43.29 32 42.09 32.09 41.84 34.74"/>
    <path class="b" d="M51.69,36.68v.7c.24.07.23-.67.21-.7h-.21Z"/>
    <path class="b" d="M36,21.6l.49.21c-.05-.15-.39-.16-.49-.21Z"/>
    <path class="b" d="M61.75,39.02c-.02-.19-.09-.51-.23-.64-.13-.12-.39-.18-.56-.16l-11.39,1.33c-.31.23-.24.54-.24.88-.04,1.62,0,5.71.28,7.19.15.81.69.68,1.36.66,2.37-.05,7.04-.78,9.42-1.28,2.02-.43,1.51-1.1,1.52-2.95,0-1.41.03-3.69-.14-5.02Z"/>
    <path class="b" d="M48.98,41.64c-.02-.77-.19-1.63.14-2.37l-1.18-.1c-.49.26-.17,2.58-.14,3.11,0,.12,0,.23,0,.35-.01.24-.05.55.07.77,0,.18,0,.37,0,.56,0,.74.06,3.19.25,3.76.2.6.69.64,1.24.71-.2-1.47-.26-2.99-.31-4.47-.03-.77-.05-1.54-.07-2.3Z"/>
    <path class="b" d="M60.71,38.01c-.05-.17-.87-.26-1.09-.27-1.17-.07-.89.15-1.62.37-.33.1-.71.06-1.04.1.04-.16-.09-.16-.2-.18-1.07-.17-2.5.34-3.58.45-.61.06-1.43-.35-1.84.28-.28.02-.82.16-1.07.14-.37-.04-.4-.32-.77-.35-.26-.02-.78.18-1.08.14l1.77.35,10.52-1.05Z"/>
    <path class="b" d="M49.81,35.49c0,.25-.01.51,0,.77,0,.01-.11.12-.07.21.08.01.15,0,.22-.02.34-.07.24-.26.26-.33.02-.07,0-.27,0-.35-.04-.46-.06-.4-.45-.77-.14.03.03.45.04.49h0Z"/>
    <path class="b" d="M50.3,38.43l.77-.17c.09-.12.11-.56.13-.74.03-.3.15-.39-.07-.7l-.04-.15c-1.06-.06-1.27,1-.79,1.75Z"/>
    <path class="b" d="M47.23,26.5c-.42-.18-.6-.09-.95.05h0c-.42.17-.39.39-.56.63-.32.45-.4.62-.62,1.12-1.53,3.42-1.85,7.47-1.74,11.17.59-2.65,1.77-5.2,3.47-7.3l-1.73-1.54,2.64-.66c-.02-.82-.05-1.64-.21-2.44-.07-.36-.12-.7-.3-1.03Z"/>
    <path class="b" d="M42.66,26.62c1.19-.14,2.41-.6,3.53-.99.03-.2,0-.41,0-.62h0c.06-.97-.06-1.93-.28-2.86-3.03.44-6.12.45-9.16.14l.26,3.29c1.81.8,3.65,1.27,5.65,1.04Z"/>
    <path class="b" d="M44.88,27.57c.03-.17-.19-.09-.33-.13-.12-.03.02-.17-.36.13-.48.36-.86,1-1.31,1.41l1.03.79.97-2.2Z"/>
    <path class="b" d="M36,22.15c-.23-.19-.47-.2-.69-.42-.89-.86-.72-3.68-.45-4.82.06-.26.34-.48.38-.7l1.11-.28c.06-.06-.13-.59-.14-.7.02-.81.12-1.63.07-2.44,0-.09.01-.19,0-.28l.04-.84c-1.03.57-1.63,1.43-1.88,2.58-.33,1.56-.33,8.57.45,9.81.34.53,1.17,1.03,1.73,1.29l-.2-3.09-.42-.12Z"/>
    <path class="b" d="M45.55,17.71c-1.67-1.68-3.41,1.57-1.99,3.22,1.61,1.86,3.48-1.71,1.99-3.22Z"/>
    <path class="b" d="M43.08,16.18c0-.1-1.14-.03-1.25-.03-1.16,0-5.44-.19-6.18.45-.77,1.06-.94,4.31.35,5-.89-.64-.77-4.21-.11-4.75.6-.5,4.97-.61,5.94-.63l1.25-.03Z"/>
    <path class="b" d="M39.61,27.32c-.08.22.1.27.14.35h0c.41.78,1.38.72,2.15.63.61-.07,1.26-.15,1.46-.84-1.29.25-2.48.2-3.75-.14Z"/>
    <path class="b" d="M40.72,30.22l1.73-1.58h-1.63c-.19,0-.57-.22-.8-.21-.11-.07-.19-.23-.35-.21-.07.15.13.3.14.35.12.54.17.79.49,1.26.05.07.06.16.14.21l.28.18Z"/>
    <path class="b" d="M41.49,32.04l.13-.29,1.74-.2.34-1.36-1.07-.84-2.03,1.87-.25,8.46,2.38.22v-3.93c-2.01-.53-1.08-2.4-1.24-3.92Z"/>
    <path class="b" d="M38.3,30.79c-.22,1.3-.59,6.99-.43,8.16.02.13,0,.26.09.36l1.86.44c.03-2.6.1-5.2.21-7.79.02-.41.06-.91.27-1.24l-.83-1.3c-.79.25-1.03.56-1.17,1.37Z"/>
    <path class="b" d="M38.7,26.9l-.72-.21s-.19.28-.25.35h0c-.68.73-1.15,1.75-1.45,2.69l1.35,1.01c.25-1.21.42-2.4.87-3.56.06-.15.26-.09.21-.28Z"/>
    <polygon class="b" points="39.33 29.21 38.98 27.46 38.5 29.49 39.33 29.21"/>
    <path class="b" d="M37.45,30.95h0c-.3.11-1.47.65-1.53.95.2,1.53.67,2.97,1.11,4.43.08.26.06.7.28.91l.35-6.42c-.14-.06-.18.13-.21.14Z"/>
    <path class="e" d="M32.32,18.38c0,.3-.12.64-.08.97l-.48.29c-.13-.28-.01-.5,0-.77,0-.19-.03-.46,0-.63h0c.05-.25.13-.5.35-.66l.21-.03c0,.09-.01.19,0,.28.02.16,0,.39,0,.56Z"/>
    <path class="e" d="M32.32,11.05c.41-.56,1.17-.23,1.18.42.01.61-.58.99-1.11.56-.42-.34-.36-.58-.07-.98Z"/>
    <path class="e" d="M32.59,12.66h.28v3.53s-.21.23-.28.24v-3.77Z"/>
    <path class="e" d="M33.43,18.45l-.07.49s0,.1,0,.14c-.02.1-.14.13-.14.14,0,.02,0,.05,0,.07-.05.17-.21.79-.38.84l-.15-.19c-.04-.17,0-.34-.02-.51,0-.05,0-.09,0-.14-.03-.57-.04-1.94.31-2.38.12-.18.22-.16.39-.21h0c.07-.02.15-.12.28-.07v1.57c0,.13-.16.13-.21.24Z"/>
    <polygon class="e" points="35.93 40.2 35.93 40.87 35.92 40.87 34.68 40.63 34.61 39.89 35.93 40.2"/>
    <path class="e" d="M34.54,40.94l1.39.21c-.22,1.29.03,3.54-1.81,3.63l.42-3.84Z"/>
    <path class="e" d="M24.12,29.84c.64-.05,1.46-.07,1.94-.56-.89.16-1.8.33-2.71.14-1.07-.22-2.01-1.32-2.22-2.37-.01-.06,0-.14,0-.21-.06-.03-.05-.09-.07-.14-.15-.53-.08-1.21,0-1.75,1,1.19,1.03,2.55,2.97,2.05,2.6-.68,1.97-3.4.5-4.88l.1-.1c2.43.21,3.59,2.83,3.02,5.03h0c-.14.55-.54.92-.55,1.49,0,.73,1.03,2.88.97,3.14l-.42.26c-.08-.55-.6-1.16-.7-1.68-.33-.31-.86.06-1.15.28l.38,1.15c.03.18-.24.09-.35.1-.07,0-.12.16-.31,0-.34-.74-.6-1.61-1.42-1.95Z"/>
    <path class="e" d="M26.76,30.6c.3.36.42.75.62,1.15.04.19-.26.04-.35.03-.7-.09-.64-.36-.89-.96l.51-.43c.19-.05.07.17.1.21Z"/>
    <path class="e" d="M24.75,33.68c0-.08-.01-.21,0-.28.04-.22.15-.35.31-.49.25-.23.44-.25.73-.35.12-.04.18-.11.35-.14h.07c.27-.04.56-.12.83-.07.16.03.3.03.42.17v1.01c-.35-.03-.69.01-1.04.07-.04,0-.1,0-.14,0l-1.16.83c-.26,0-.36-.56-.37-.76Z"/>
    <path class="e" d="M25.7,36.39c-.4-.19-.6-.54-.6-.97,0-.1.03-.25.07-.35.17-.46.93-.82,1.39-.84.31-.14.44-.29.83-.14l.62.87-1.18.46c-.15.12-.37.3-.56.35l-.58.62Z"/>
    <path class="e" d="M27.8,37.33l-.35.57c-.65.16-1.52-.6-1.32-1.29.02-.08.12-.11.14-.14.27-.41,1.06-.88,1.53-.98.09-.02.24,0,.35,0,.03,0,.18-.14.29-.06,1.21.85.51,1.68-.78,1.56l.14.34Z"/>
    <polygon class="e" points="29.61 38.43 29.68 38.63 29.02 38.71 28.5 37.38 29.05 37.31 29.61 38.43"/>
    <path class="e" d="M31.34,41.29l.8.21.33.37.12.47c-.34-.53-.67-.81-1.25-1.05Z"/>
    <path class="e" d="M33.77,42.69c-.04.35-.15,1.06-.48,1.26l-.28-1.4c-.45-1.16-.54-1.69-2.05-1.54-2.22.24-1.41,2.84-.59,4.08-.3-.14-.56-.26-.83-.45-1.21-.43-1.73-1.48-1.58-2.74.06-.52.34-.84.47-1.24.43-1.38.04-1.13-.21-2.37-.02-.11-.19-.17-.09-.4l.12-.16c.13.05.08.24.1.28.21.31.36.62.46.98l.39.18c1.37-.15.46-1.09.26-1.87-.18-.69.11-.67,0-1.26h0c-.05-.26-.25-.54-.39-.76l.07-.21c.22.29.26.65.38.98s.17.69.28.98c.29.76.62,2.06,1.46,2.23,1.92-.02,2.72,1.73,2.5,3.42Z"/>
    <path class="e" d="M34.05,37.66l-.07,2.44c-.45-.52-.87-.95-1.51-1.24-.48-.22-1.5-.2-1.41-.78l2.98-.42Z"/>
    <path class="e" d="M30.34,36.89c-.03-.68-.72-1.89-.79-2.42-.02-.12.12-.24.12-.3v-.21s0-.09,0-.14l-.35-.49c.27,1.29-1.02,2.14-1.32.49-.07-.37-.13-.74,0-1.12h0c.89-1.75,2.32.7,2.57,1.61.53.58.81,2.43-.24,2.58Z"/>
    <path class="e" d="M51.06,10.91c.06-.05.08-.05.14-.07l.28-.07s.1,0,.14,0c.44.05.65.33.62.77-.05.79-1.23.94-1.39.21-.06-.28-.03-.65.21-.84Z"/>
    <polygon class="e" points="51.62 12.66 51.62 16.5 51.41 16.39 51.41 12.66 51.62 12.66"/>
    <path class="e" d="M51.13,17.34c.44-.57,1.08.36.97.84l-.55-.07c.18.47.46,2.24-.12,2.43l-.63-.07c-.26-.51-.27-1.03-.23-1.59.04-.56.1-1.14.56-1.54Z"/>
    <path class="e" d="M50.58,16.85s.23.08.07.21v.14c-.04.09-.19.28-.21.35-.08.42-.17.75-.21,1.19-.04.49,0,.99.07,1.47l-.51.26-.19.58-.21-.66c.02-.37-.04-.79,0-1.15.02-.39-.02-.8,0-1.19.02-.34.15-1.53.56-1.61.32.02.48.16.62.42Z"/>
    <path class="e" d="M47.01,11.41c1.69.73,3.14,2.38,3.01,4.32-.01.02-.34.02-.41.07h0c-.97.71-.86,3.73-.76,4.85.05.63.14,1.36.68,1.76-.13,1.67-1.67,2.43-3.01,3.02l-.24-3.35,1.13-.36c.88-.76.91-4.31.25-5.19-.4-.54-.8-.47-1.32-.66-.05-.02-.2.05-.21-.04-.11-.61.31-4.29.88-4.42Z"/>
    <path class="e" d="M41.76,9.17c.16,0,.33-.01.49,0,1.71.16,2.62,2.13,2.29,3.7l-.25.48c-.49.8-.71,1.11-1.55,1.34.95-1.15,1.56-2.35.65-3.76-.18-.28-.79-.87-1.07-.98-.73-.3-1.57-.21-2.29.07-.82.57-1.42,1.23-1.46,2.3-.02.57.1.82.28,1.33.47.65,1.04,1.23,1.87,1.33-.59.21-1.53-.43-1.8-.98-.47-.44-.58-1.06-.56-1.68.07-1.94,1.54-3.1,3.4-3.14Z"/>
    <path class="e" d="M41.76,10.21s.09,0,.14,0c.04,0,.01-.01.07,0,1.72.36,2.04,2.89.7,3.95-1.27,1-3.24.52-3.68-1.08-.5-1.81.99-3.3,2.78-3,0,0,0,.13,0,.14Z"/>
    <path class="e" d="M36.83,11.38l1.42-.61c-.38.92-.52,1.88-.24,2.86.3.36.41.83.83,1.19,1.1.94,3.03.99,4.3.42,1.71-.76,2.54-2.95,1.67-4.64.02-.12.2.03.21.03h0c.61.03,1.14.32,1.67.6-.72,1.39-.84,3.02-.84,4.57l-9.23.07.21-4.49Z"/>
    <path class="e" d="M38.16,18.16l-.39.63-.39-.28c-.32.95-.17,2.36.95,2.64l.5-.06.14-.11c-.06.04-.09.13-.14.18-1.24.96-2.25-.78-2.23-1.92.03-1.59,1.69-2.94,2.64-1.12-.4-.2-.77-.52-1.25-.28l.15.3Z"/>
    <path class="e" d="M35.89,16.84c-.66.54-.78,4.11.11,4.75.1.05.43.06.49.21l-.49-.21c-1.29-.68-1.12-3.94-.35-5,.74-.64,5.02-.46,6.18-.45.11,0,1.25-.06,1.25.03l-1.25.03c-.97.02-5.34.13-5.94.63Z"/>
    <path class="e" d="M45.55,17.71c1.49,1.51-.37,5.08-1.99,3.22-1.43-1.65.32-4.9,1.99-3.22Z"/>
    <path class="e" d="M34.89,24.07c-.78-1.24-.78-8.25-.45-9.81.24-1.15.85-2.02,1.88-2.58l-.04.84c.01.09,0,.19,0,.28.05.81-.05,1.63-.07,2.44.01.11.2.64.14.7l-1.11.28c-.04.22-.32.44-.38.7-.27,1.13-.44,3.95.45,4.82.22.21.46.22.69.42l.42.12.2,3.09c-.56-.26-1.4-.76-1.73-1.29Z"/>
    <path class="e" d="M37.02,25.58l-.26-3.29c3.04.31,6.13.3,9.16-.14.22.94.34,1.9.28,2.86h0c-.01.2.02.41,0,.62-1.13.39-2.34.85-3.53.99-2,.23-3.84-.24-5.65-1.04Z"/>
    <path class="e" d="M44.19,27.57c.39-.29.24-.15.36-.13.14.03.36-.04.33.13l-.97,2.2-1.03-.79c.45-.41.83-1.05,1.31-1.41Z"/>
    <path class="e" d="M41.9,28.3c-.77.09-1.74.15-2.15-.63h0c-.04-.07-.22-.13-.14-.35,1.27.34,2.46.39,3.75.14-.2.69-.85.76-1.46.84Z"/>
    <polygon class="e" points="39.33 29.21 38.5 29.49 38.98 27.46 39.33 29.21"/>
    <path class="e" d="M37.31,37.24c-.22-.21-.2-.65-.28-.91-.44-1.46-.92-2.9-1.11-4.43.06-.3,1.23-.84,1.53-.95h0s.07-.19.21-.14l-.35,6.42Z"/>
    <path class="e" d="M37.63,30.74l-1.35-1.01c.3-.94.77-1.96,1.45-2.69h0c.06-.07.22-.35.25-.35l.72.21c.05.19-.15.13-.21.28-.45,1.16-.62,2.35-.87,3.56Z"/>
    <path class="e" d="M40.02,31.96c-.11,2.59-.17,5.19-.21,7.79l-1.86-.44c-.09-.11-.07-.24-.09-.36-.16-1.18.21-6.87.43-8.16.14-.81.38-1.12,1.17-1.37l.83,1.3c-.21.34-.26.84-.27,1.24Z"/>
    <path class="e" d="M39.81,28.58s-.21-.2-.14-.35c.16-.02.24.14.35.21.23-.02.61.21.8.21h1.63l-1.73,1.58-.28-.18c-.07-.05-.09-.14-.14-.21-.31-.47-.37-.72-.49-1.26Z"/>
    <path class="e" d="M42.73,39.89l-2.38-.22.25-8.46,2.03-1.87,1.07.84-.34,1.36-1.74.2-.13.29c.16,1.52-.76,3.38,1.25,3.92v3.93Z"/>
    <polygon class="e" points="42.8 35.56 41.84 34.74 42.09 32.09 43.29 32 42.8 35.56"/>
    <path class="e" d="M45.09,30.64l1.73,1.54c-1.7,2.1-2.88,4.65-3.47,7.3-.11-3.7.21-7.76,1.74-11.17.22-.5.3-.66.62-1.12.17-.23.14-.46.56-.63h0c.35-.14.53-.23.95-.05.18.33.23.67.3,1.03.16.8.18,1.63.21,2.44l-2.64.66Z"/>
    <polygon class="e" points="45.99 40.31 46 40.87 45.72 40.87 45.71 40.31 45.99 40.31"/>
    <path class="e" d="M46.2,44.22c-.38-.28-.59-2.95-.49-3.07h.31s.25,3.07.25,3.07h-.07Z"/>
    <path class="e" d="M57.17,35.98c.38-.03.58.11.69.49.11.38.1.83,0,1.22h-.5s-.21-1.5-.21-1.5h0v-.21Z"/>
    <path class="e" d="M55.78,34.03c.24.17.48.49.56.77,0,0,.06.03.07.07,0,.04,0,.09,0,.14.3.64.22,1.37.03,2.02l-.93.35c.08-.33.1-.71.07-1.05-.01-.14-.04-.44-.07-.56l-.33,1.51c-.24.47-.77.37-1.19.37l-.28-2.1v.45s0,1.33,0,1.33c0,.53-.79.85-1.22.53-.16-.17-.1-1.09-.17-1.4-.1-.45-.28-.87-.62-1.19l.21,1.05c-.21.02-.34-.11-.55-.14-.09-.01-.2.02-.28,0-.02,0-.18.16-.2-.1-.1-2.63,3.13-3.44,4.92-2.07Z"/>
    <path class="e" d="M51.69,37.38v-.7h.21s.03.77-.21.7Z"/>
    <path class="e" d="M51.09,36.67l.04.15c.22.3.1.4.07.7-.02.18-.05.62-.13.74l-.77.17c-.48-.75-.26-1.81.79-1.75Z"/>
    <path class="e" d="M49.78,35c.39.36.41.3.45.77,0,.08.02.28,0,.35-.02.07.07.26-.26.33-.08.02-.15.03-.22.02-.04-.09.07-.2.07-.21-.01-.25,0-.51,0-.77h0s-.18-.45-.04-.49Z"/>
    <path class="e" d="M49.51,38.56c.37.03.4.3.77.35.24.03.79-.12,1.07-.14.41-.63,1.23-.22,1.84-.28,1.08-.11,2.52-.62,3.58-.45.12.02.24.01.2.18.34-.04.71,0,1.04-.1.73-.23.45-.45,1.62-.37.21.01,1.04.1,1.09.27l-10.52,1.05-1.77-.35c.3.04.82-.17,1.08-.14Z"/>
    <path class="e" d="M48.12,47.7c-.19-.57-.25-3.02-.25-3.76,0-.19,0-.37,0-.56-.12-.22-.08-.53-.07-.77,0-.12,0-.23,0-.35-.03-.53-.35-2.85.14-3.11l1.18.1c-.33.74-.16,1.61-.14,2.37.02.77.04,1.54.07,2.3.05,1.48.11,3,.31,4.47-.55-.07-1.04-.11-1.24-.71Z"/>
    <path class="e" d="M60.38,46.99c-2.38.5-7.05,1.23-9.42,1.28-.67.01-1.21.15-1.36-.66-.27-1.48-.32-5.57-.28-7.19,0-.33-.06-.65.24-.88l11.39-1.33c.18-.02.43.05.56.16.14.13.2.46.23.64.17,1.34.15,3.62.14,5.02,0,1.85.5,2.52-1.52,2.95Z"/>
    <path class="h" d="M50.43,48.79s-.09,0-.13.01c.04,0,.09,0,.13,0h0Z"/>
    <path class="e" d="M52.22,48.64c-.35-.05-.63-.08-.89-.11-.15.08-.32.15-.5.2.07,0,.14.02.21.02.05,0,.1,0,.15-.01.19-.01.39-.02.58-.03.18-.01.36-.03.54-.03,0,0,0,0,0,0v-.03s-.09-.01-.09-.01Z"/>
    <g>
      <g>
        <path class="e" d="M44.29,50.16c-.59-1.17-1.5-6.64-1.51-6.69-.11-.69-.18-1.4-.25-2.08-.02-.24-.05-.47-.07-.71h-.46c-1.28-.05-2.6-.09-3.86-.43l-.6,6.85s-.32.02-.32.02c-.33,0-.5-.24-.61-.39-.01-.02-.02-.03-.03-.04h-.14c-.3.12-.78.31-1.12.44-.85.34-.86.34-.93.34-.22.02-.52.04-.74.05h-.06s-.06-.01-.06-.01c-.98-.27-.77-1.47-.56-2.37l-.35-.08-.08-.15c-.18-.34-.3-.71-.42-1.06-.19-.57-.37-1.11-.76-1.48l-.41-.13c-.47.13-.54.38-.56.46-.2.74.79,2.23,1.55,2.93l.71.65h-2.18c-.81,0-1.67-.41-2.38-1.13-.79-.8-1.24-1.84-1.23-2.78.01-.58.2-1.08.37-1.52.26-.68.45-1.18.05-1.79-.87-.3-1.47-.65-1.78-1.05-.21-.28-.28-.59-.33-.8-.01-.05-.02-.09-.03-.12-.02-.02-.11-.1-.21-.17-.23-.18-.55-.43-.68-.86,0-.02-.51-2.3-.5-2.55.04-.65.41-1.04.79-1.37l-.61-1.28c-1.65-.22-2.98-1.12-3.65-2.48-.74-1.5-.58-3.35.42-4.95l.27-.43.33.39c.28.33.5.77.72,1.2.38.75.77,1.52,1.35,1.52.19,0,.41-.07.65-.22.26-.15.41-.33.47-.56.17-.67-.44-1.69-.94-2.5-.22-.37-.43-.71-.55-1l-.16-.37.38-.13c.45-.15.91-.23,1.35-.23,1.1,0,2.13.48,2.92,1.36.98,1.1,1.47,2.69,1.29,4.25-.05.44-.24.84-.41,1.19-.14.3-.28.59-.28.8.03.28.69,2.14.91,2.55.05.02.12.04.19.06.22.07.48.15.62.22.16.08.28.21.38.33.05.05.12.13.15.15.29,0,1.27-.29,1.46-.41.6-.39,1.09-1.37,1.52-2.24.26-.53.51-1.04.78-1.4.43-.58,1.16-1.08,2.22-1.52-1.11-.61-2.23-1.27-2.72-2.63-.06-.17-.09-.38-.11-.6-.02-.15-.05-.4-.08-.46-.04-.03-.28-.16-.46-.26-.53-.28-1.26-.67-1.62-1.23-.49-.76-.56-2.94-.13-3.76.11-.21.28-.35.4-.44.03-.03.07-.05.09-.08.04-.26.1-3.8.03-4.18-.01-.06-.05-.11-.13-.21-.14-.18-.33-.42-.36-.89-.05-.68.2-1.09.42-1.33.28-.3.7-.48,1.13-.48.49,0,.95.22,1.24.58.22.28.44.76.26,1.51.68-.71,1.59-1.14,2.45-1.54.58-.27,1.13-.53,1.6-.86,1.43-1.01,2.63-1.48,3.8-1.48s2.35.47,3.66,1.49c.62.48,1.26.8,1.87,1.12,1.09.56,2.14,1.1,2.8,2.36v-.34c-.18-.18-.3-.31-.36-.45-.26-.63-.23-1.23.08-1.7.29-.43.82-.7,1.37-.7.78,0,1.38.52,1.5,1.28.13.8-.12,1.13-.4,1.43-.12.13-.18.2-.2.33-.06.37,0,3.59.06,3.91.02.07.08.15.15.24.09.12.21.27.28.48.2.61.22,2.5.07,3.1-.24,1-1.13,1.45-1.79,1.77-.3.15-.58.29-.7.43-.02.04-.06.21-.08.32-.04.19-.09.4-.17.56-.48.93-1.12,1.4-1.8,1.89,2.89.52,4.4,2.63,5.99,4.85l.2.28c.22.31.44.72.66,1.12.23.42.47.86.65,1.08.15.17.31.3.49.44.41.32.86.68.97,1.54.48.05,1.27.37,1.39,1.9.57,0,2.91.07,3.5.77.28.33.35.92.4,1.49.15,1.68.31,6.17.05,7.56-.06.34-.26.63-.42.82l-.05.06-.73.36-7.71,1.03-.26-.04-.09.1-.26.02-.68.09h-.02s-.15,0-.15,0l-.06.02h-.05s-.3,0-.3,0v-.04c-.06,0-.1.02-.16.04-.11.03-.23.06-.37.06h0c-.06.01-.12.02-.18.02-.07,0-.15,0-.23-.02h0s-1.02.08-1.02.08h0s-.14,0-.14,0h-.02s-.06,0-.06,0c-.17-.02-.34-.05-.51-.06l-.27-.02-.19-.02c-.19-.03-.36-.06-.54-.1-.1-.02-.2-.04-.29-.05l-.2-.03c-.1-.02-.2-.04-.3-.06-.05-.01-.1-.03-.14-.05-.14-.06-.25-.11-.35-.17l-.35-.17-.25-.37h-.08s-.11-.27-.11-.27c0,0,0-.02,0-.03-.18.34-.38.73-.54,1.04-.7,1.36-.73,1.41-.87,1.49l-.34.2-.18-.36ZM47.17,39.19c-.09.04-.16.09-.21.15-.14.18-.15.53-.04,1.03l.02.07v.09s0,.16,0,.16c-.02.29-.04.67.04.89l.03.07v.08c-.03.87.06,1.73.13,2.39-.05.44.04,2.25.16,2.98,0,0,0-.02,0-.02.02-1.14-.04-2.25-.1-3.32-.05-.89-.1-1.81-.11-2.72,0-.07,0-.15,0-.23,0-.17.02-.35-.03-.44l-.05-.1v-.11s0-.1.01-.17c.04-.3.08-.54.15-.79ZM36.59,39.69l-.02.31c-.02.3-.03.63-.03.99-.02,1.42-.06,3.24-1.2,4.09.41-.04.82-.07,1.1-.07.16-1.78.3-3.91.29-4.34v-.06s.02-.2.02-.2c.08-.24.07-.59.06-.89v-.16c-.04-1.25-.44-2.52-.82-3.74-.27-.88-.56-1.78-.72-2.69-.1,1.23-.14,2.48-.17,3.71-.02.89-.05,1.78-.1,2.67l1.6.4ZM46.86,31.03c.29.22.62.48.85.85l.13.22-.16.2c-1.64,2.12-2.81,4.39-3.41,6.57-.35,1.29-.3,3.64.12,6.07.29-.02.74-.04,1.12-.04.09,0,.18,0,.26,0-.04-.11-.09-.21-.14-.32-.15-.33-.33-.71-.41-1.2-.11-.7-.12-1.41-.13-2.1,0-.4,0-.8-.03-1.19l-.02-.38.58-.04c.02-.56.15-.94.57-1.43l.09-.1,2.68-.45c-.08-.51-.14-1.03-.16-1.53,0-.31,0-.58.03-.83.04-.56.06-.96-.2-1.5-.1-.22-.12-.27-.24-.43l-.05-.07-.02-.08c-.03-.17-.08-.34-.13-.51l-.45-1.59.99.98-.33-1.41-1.6.27s.03.02.05.04ZM31.16,33.18c.47.87.82,1.7.84,2.65,0,.25-.02.52-.08.84-.01.07-.04.15-.1.29l1.89-.35c.04-.35.07-.7.1-1.06.04-.45.09-.91.14-1.36.04-.3.12-1.05.12-1.13l-.65-.2s.12.15.12.15l-.03.17c-.01.05,0,.13.03.22.02.07.03.14.04.21,0,.06,0,.12,0,.18l.11,1.28-.78-.97-.06-.06-.14-.18c-.19-.5-.56-.72-1.18-.72-.12,0-.25,0-.39.03ZM52.06,31.67c-.14.19-.29.32-.43.44-.11.1-.23.2-.34.33-.21.26-.21.28-.34.55l-.05.12c-.07.16-.19.41-.26.65.06-.08.11-.14.14-.18.81-.99,1.92-1.13,2.98-1.18h.02c.08,0,.16,0,.26.01.03,0,.05,0,.08,0-.85-1.32-2.87-4.11-3.47-4.48-.17.06-.34.21-.5.36-.62.54-.75,1.17-.91,1.96l-.09.44-.34,1.51c.18.19.31.39.44.59.1.15.19.3.3.43.03-.07.06-.15.09-.24.12-.31.25-.64.34-.81l.03-.06.09-.08s.13-.11.18-.18c.51-.47.96-.71,1.43-.78l.9-.13-.54.73ZM34.14,32.51c.1-.84.22-1.68.46-2.5-.01.03-.03.06-.04.08-.28.55-.57,1.12-1.02,1.65l.6.76ZM35.49,30.99l.5-.25-.4-.31c-.03.19-.07.37-.1.56ZM48.39,27.19c.03.17.05.32.06.38.03.38.05.76.06,1.14.12-.39.3-.74.53-1.01.08-.09.17-.19.28-.27l-.94-.33s0,.06.01.08Z"/>
        <path class="i" d="M42.14,8.45c1.09,0,2.19.45,3.43,1.41h0c2.25,1.73,4.67,1.53,5.14,5.35.04.34-.18.73.14.87v-3.53s-.32-.29-.39-.45c-.49-1.19.32-1.88,1.1-1.88.52,0,1.03.3,1.13.97.18,1.12-.49.99-.6,1.64-.06.39-.02,3.7.07,4.06.07.29.34.45.44.75.18.53.2,2.34.07,2.89-.31,1.27-1.91,1.49-2.41,2.05-.15.17-.17.7-.3.95-.61,1.17-1.47,1.54-2.44,2.33,3.48.19,5.03,2.54,6.86,5.08.44.62.94,1.76,1.33,2.22.59.69,1.38.78,1.4,2.12.07,0,.13-.01.19-.01.97,0,1.18,1.07,1.18,1.91.07,0,.16,0,.27,0,.92,0,2.89.15,3.31.64.24.28.29.99.32,1.36.13,1.53.3,6.03.05,7.39-.04.23-.18.46-.34.64l-.6.3-2.46.33-5.14.68c-.09-.01-.17-.03-.28-.04-.03,0-.05,0-.07,0-.13,0-.24.05-.31.14l-.57.08h-.02s0,0,0,0c-.05,0-.1,0-.15,0,0,0-.02,0-.02,0-.01,0-.02,0-.04,0-.02,0-.05,0-.07,0,0,0,0,0,0,0,0,0,0,0,0,0-.01,0-.02,0-.04,0,0,0,0,0,0,0v-.03s-.09-.01-.09-.01c-.04,0-.08,0-.12,0-.25,0-.41.11-.61.11-.02,0-.04,0-.06,0-.04.02-.08.03-.12.03-.12,0-.26-.05-.38-.05-.03,0-.06,0-.09,0,.07,0,.14.02.21.02-.21.02-.41.03-.61.05h0s-.09,0-.13,0c-.07,0-.13.01-.2.01,0,0-.01,0-.02,0,0,0,0,0,0,0,0,0-.01,0-.02,0-.02,0-.03,0-.05,0,0,0,0,0,0,0,0,0,0,0,0,0,0,0,0,0,0,0,0,0-.02,0-.03,0,0,0-.02,0-.02,0-.01,0-.03,0-.04,0,0,0,0,0,0,0,0,0,0,0,0,0,0,0,0,0,0,0-.18-.03-.36-.05-.53-.06-.09,0-.18-.01-.26-.02-.02,0-.15-.02-.19-.02-.17-.02-.34-.06-.5-.09-.17-.04-.34-.06-.51-.09-.09-.02-.18-.03-.26-.06-.04-.01-.08-.02-.11-.04,0,0,0,0-.01,0-.18-.08-.38-.18-.57-.28-.06-.09-.12-.18-.18-.27-.04-.05-.07-.11-.11-.16-.01,0-.03,0-.04,0-.09-.34-.14-.69-.16-1.04.02-.03.04-.04.05-.04,0,0,0,0,0,0-.03-.11-.06-.36-.09-.61-.02-.28-.05-.56-.12-.83-.16-.64-.55-1.1-.67-1.87-.17-1.07-.09-2.19-.16-3.26l.56-.04c-.01-.69.05-1.04.49-1.54l2.92-.49c-.1-.6-.2-1.24-.21-1.85-.02-.99.22-1.59-.21-2.48-.11-.23-.12-.28-.28-.49-.05-.26-.14-.51-.21-.77.33.33.51.78.83,1.12.13.13.22.33.45.35.09-.03,0-.28.04-.35.13-.31.35-.94.49-1.19,0-.02.17-.13.28-.28.34-.3.72-.56,1.18-.63-.22.3-.51.45-.76.77-.25.32-.26.35-.42.7-.24.52-.74,1.58,0,1.89.05-.34.28-.72.49-.98.7-.85,1.67-.99,2.71-1.05,0,0,.01,0,.02,0,.11,0,.43.04.67.04.16,0,.28-.02.28-.07-.44-.8-3.42-5.12-4.08-5.19-.3.06-.56.28-.78.48-.83.72-.88,1.57-1.11,2.58-.19-.82.01-2.01.55-2.65.22-.26.58-.48.9-.59l-2.29-.8s.13.89.14,1.05h0c.07.93.09,1.86.06,2.79l-2.15.35c.39.5,1.05.76,1.39,1.33-1.52,1.97-2.81,4.27-3.47,6.7-.43,1.6-.25,4.32.17,6.57,0,0,.79-.06,1.43-.06.42,0,.78.02.8.11,0,.04.04.34.07.63,0,.06,0,.12.01.18,0,.16.02.32.03.48-.32.38-1.68,3.24-1.8,3.31-.52-1.03-1.37-5.96-1.47-6.58-.17-1.02-.24-2.07-.36-3.1h0c-1.67-.07-3.4-.03-5-.56l-.61,6.99s0,0,0,0c-.2,0-.33-.44-.49-.44,0,0,0,0,0,0,.21-1.87.43-5.1.42-5.65,0-.05,0-.09,0-.14.12-.35.08-.81.07-1.19-.08-2.69-1.69-5.24-1.67-7.93l1.18-.59-.97-.75c-.08-.27.47-1.6.63-1.9.04-.08.59-.8.56-.84-.35.03-.62.25-.9.42h0c-1.64.95-1.66,2.67-2.95,3.99l.66.83-.93-.28c-.28.05-.19.23-.25.35h0s0,0,0,0c-.01,0-.03,0-.06,0-.06,0-.12.02-.08.14l.14-.14s0,0,0,0c.13.03.57.41.62.49-.04.2.04.38.07.56,0,.07,0,.14,0,.21-.04-.05-.09-.09-.14-.14-.29-.74-.88-.96-1.53-.96-.32,0-.65.05-.97.13.5.9,1.02,1.86,1.04,2.93,0,.26-.03.51-.07.77-.02.13-.34.78-.28.84l2.78-.52c.11-.9.17-1.8.28-2.69.23-1.92.3-3.92,1.25-5.66h.07c-1.06,3.52-.81,7.34-1.05,10.99l1.59.4c-.13,1.78.32,4.92-2.13,5.17-.07.07-.16.3-.17.46,0,0,1.8-.23,2.56-.23.18,0,.3.01.32.05,0,.07-.08.63-.08.78,0,0,0,0,0,0-.13,0-2.27.88-2.35.89-.22.02-.51.04-.71.05-.76-.21-.4-1.47-.2-2.29l-.56-.12c-.46-.88-.53-2.02-1.32-2.7l-.58-.19c-2.16.48-.18,3.22.73,4.06h-1.22c-1.61,0-3.26-1.88-3.23-3.53.03-1.38,1.25-2.33.29-3.64-.54-.17-1.36-.5-1.72-.96-.25-.33-.24-.75-.32-.86-.2-.29-.71-.46-.87-.98-.06-.18-.49-2.29-.48-2.41.04-.62.44-.93.87-1.29l-.83-1.73c-3.6-.35-5.02-3.9-3.16-6.88.75.88,1.15,2.85,2.35,2.85.24,0,.52-.08.84-.27,1.75-1.03-.38-3.38-.87-4.54.43-.14.84-.21,1.23-.21,2.46,0,4.13,2.6,3.83,5.19-.09.75-.69,1.45-.69,2.04,0,.31.87,2.71,1.04,2.85.07.06.66.19.89.31.23.12.41.46.62.5.02,0,.05,0,.08,0,.38,0,1.42-.3,1.68-.47,1.08-.7,1.7-2.79,2.4-3.73.61-.83,1.87-1.36,2.81-1.68-1.28-.73-2.71-1.32-3.27-2.82-.11-.3-.09-.95-.24-1.15-.21-.27-1.59-.72-2.07-1.47-.43-.67-.47-2.7-.11-3.38.13-.25.41-.37.47-.5.11-.22.15-4.09.08-4.45-.08-.36-.44-.45-.48-1.05-.07-.95.55-1.4,1.18-1.4.7,0,1.4.57,1.14,1.63-.11.45-.45.5-.51.81-.17.84.14,2.25,0,3.15l.21.24v-1.29c0-3.39,3.06-3.6,4.93-4.92,1.29-.91,2.43-1.41,3.58-1.41M47.8,48.13c.06-.07-.12-.95-.14-1.12.04-2.01-.2-4-.21-6.01,0-.27.06-.6-.07-.84,0-.05,0-.09,0-.14.07-.54.13-.85.42-1.33-1.2.02-1.52.6-1.25,1.75,0,.07,0,.14,0,.21-.02.32-.05.75.07,1.05-.03.82.04,1.63.14,2.44-.07.46.07,2.68.21,3.23,0,.02.01.06.02.07.04.11.11.21.19.3.17.19.4.34.62.38M42.14,7.7c-1.24,0-2.52.49-4.01,1.54-.44.31-.98.56-1.55.83-.61.29-1.28.6-1.87,1.03-.05-.33-.18-.64-.38-.89-.36-.46-.93-.73-1.54-.73-.54,0-1.05.22-1.41.6-.27.29-.57.8-.52,1.61.04.58.29.9.44,1.1.02.02.04.05.06.07.05.52.01,3.15-.05,3.92-.13.11-.31.27-.43.51-.5.94-.42,3.26.14,4.14.41.65,1.19,1.06,1.76,1.36.1.05.22.12.31.17.01.08.03.19.04.26.03.24.06.48.14.69.44,1.2,1.33,1.91,2.25,2.46-.77.39-1.33.83-1.7,1.33-.29.39-.55.91-.82,1.46-.41.82-.87,1.76-1.39,2.09-.17.09-.81.28-1.13.33,0,0,0,0,0,0-.11-.12-.27-.29-.48-.4-.17-.09-.39-.16-.68-.25-.01,0-.02,0-.04-.01-.24-.53-.73-1.91-.8-2.27.02-.14.14-.4.24-.61.18-.38.38-.81.44-1.31.19-1.66-.33-3.36-1.38-4.54-.85-.96-1.99-1.48-3.2-1.48-.48,0-.97.08-1.47.25l-.77.26.32.75c.13.32.35.67.58,1.05.41.68,1.03,1.7.89,2.22-.02.09-.08.2-.29.33-.23.14-.38.17-.46.17-.34,0-.71-.73-1.01-1.31-.23-.45-.46-.91-.77-1.28l-.66-.78-.54.87c-1.07,1.71-1.23,3.69-.44,5.31.7,1.42,2.04,2.37,3.73,2.66l.41.85c-.35.33-.66.77-.7,1.44-.02.32.51,2.66.51,2.68.17.55.55.85.81,1.05.03.03.08.06.11.09.05.23.13.6.39.94.34.44.95.82,1.82,1.13.21.39.1.71-.15,1.35-.18.47-.39,1.01-.4,1.65-.02,1.04.48,2.18,1.33,3.05.78.79,1.74,1.24,2.65,1.24h1.97c.06.55.32,1.04.99,1.22l.11.03h.11c.22-.01.53-.03.76-.06.13-.01.15-.02,1.03-.37.28-.11.66-.26.97-.38.15.18.4.4.77.4h.06s.64-.04.64-.04l.06-.64.53-6.1c1.17.25,2.36.29,3.52.32.05,0,.09,0,.14,0,.01.13.03.25.04.38.07.69.14,1.41.26,2.11.04.23.93,5.58,1.54,6.8l.36.71.69-.4c.25-.14.3-.26,1.01-1.64.07-.15.16-.31.25-.49l.04.06.12.17.19.09c.08.04.16.08.24.12.11.06.23.11.34.16h.03s.04.03.04.03c.05.02.11.04.17.05.11.03.22.05.33.07l.2.03c.09.01.19.03.28.05.18.04.37.08.55.1l.14.02h.07c.1.02.19.03.28.03.13,0,.25.02.38.04v.05l.5-.03s.05,0,.08,0h.22c.21-.03.41-.04.62-.06.07,0,.14.02.2.02.08,0,.15,0,.23-.02.18,0,.33-.05.43-.08.03,0,.06-.02.08-.02l.09.02h.03s.04.01.04.01h.07s.07,0,.07,0h.11s.03-.01.03-.01h.03c.05,0,.1,0,.14,0h.09s.59-.08.59-.08l.27-.04.07-.07h.07s.11.03.11.03h.15s5.14-.69,5.14-.69l2.46-.33.12-.02.11-.06.6-.3.13-.07.1-.11c.19-.22.43-.56.51-.99.28-1.51.08-6.23-.04-7.59v-.08c-.06-.63-.14-1.29-.49-1.7-.61-.71-2.46-.86-3.45-.89-.2-1.27-.88-1.7-1.4-1.84-.19-.82-.68-1.22-1.07-1.52-.16-.13-.31-.25-.44-.39-.16-.19-.4-.63-.61-1.01-.22-.41-.45-.83-.69-1.16l-.2-.28c-1.49-2.08-2.91-4.06-5.43-4.81.46-.38.91-.84,1.27-1.54.11-.21.16-.44.2-.65.01-.07.03-.14.04-.2.12-.09.36-.21.54-.3.68-.34,1.7-.86,1.98-2.02.16-.67.14-2.62-.08-3.3-.09-.27-.23-.46-.34-.59-.03-.04-.08-.1-.09-.12-.05-.33-.1-3.34-.05-3.75,0-.01,0-.02.1-.13.32-.34.65-.78.49-1.74-.15-.96-.9-1.6-1.87-1.6-.68,0-1.32.33-1.68.87-.21.31-.31.66-.32,1.04-.54-.42-1.13-.73-1.72-1.03-.57-.29-1.15-.59-1.72-1.01l-.1-.08c-1.38-1.07-2.62-1.56-3.89-1.56h0ZM49.21,32.09l.3-1.32c.03-.15.06-.3.09-.44.16-.78.26-1.29.78-1.74.07-.06.15-.13.23-.19.39.37,1.1,1.27,1.78,2.2l-.74.11c-.54.08-1.06.35-1.57.81l-.05.05-.04.06s-.09.09-.12.12c-.06.05-.14.12-.21.24-.06.11-.13.27-.2.43-.07-.11-.15-.22-.24-.33h0ZM51.96,32.31c.13-.11.27-.25.4-.43l.49-.66c.2.28.39.56.56.81-.48.04-.97.11-1.45.27h0ZM44.71,44.56c-.36-2.26-.39-4.4-.07-5.58.56-2.06,1.65-4.2,3.17-6.22l.03.12c.05.15.09.31.12.46l.03.16.1.14c.09.13.1.14.17.3l.03.07c.21.45.19.78.16,1.31-.02.25-.03.54-.03.87,0,.4.05.81.11,1.21l-2.19.37-.27.04-.18.2c-.4.46-.57.85-.64,1.32l-.64.04.05.75c.02.38.03.78.03,1.17,0,.71.02,1.44.14,2.16.07.44.21.78.34,1.09-.17,0-.34,0-.49.02h0ZM32.33,36.49c.03-.24.05-.45.04-.66-.01-.84-.29-1.61-.6-2.28.37.05.52.22.61.47l.06.15.11.11.07.07.83,1.09s0,.06,0,.09c-.02.26-.05.51-.07.77l-1.04.19h0ZM35.39,38.99c.04-.79.06-1.59.08-2.36.01-.43.02-.86.04-1.29.04.13.08.25.12.38.38,1.22.74,2.37.8,3.54h-.04s-.99-.26-.99-.26h0ZM32.49,45.62l-.29-.27c-.75-.68-1.58-2.05-1.45-2.55.02-.07.08-.12.2-.17l.21.07c.29.31.44.76.61,1.27.12.37.25.75.44,1.11l.16.31.16.04c-.01.06-.02.13-.04.2h0Z"/>
      </g>
      <path class="b" d="M33.5,11.47c-.01-.65-.77-.98-1.18-.42-.29.4-.35.64.07.98.53.44,1.12.06,1.11-.56Z"/>
      <path class="b" d="M32.87,16.18v-3.53h-.28v3.77c.06-.02.28-.23.28-.24Z"/>
      <path class="b" d="M32.32,17.55l-.21.03c-.22.16-.3.41-.35.66h0c-.03.17,0,.44,0,.63-.01.27-.13.49,0,.77l.48-.29c-.04-.33.07-.67.08-.97,0-.17.02-.4,0-.56-.01-.09,0-.19,0-.28Z"/>
      <path class="b" d="M50.86,36.1c.02.25.19.09.2.1.08.02.19-.01.28,0,.21.03.34.16.55.14l-.21-1.05c.34.32.53.74.62,1.19.07.31,0,1.23.17,1.4.43.32,1.22,0,1.22-.53v-1.78s.28,2.1.28,2.1c.42,0,.96.1,1.19-.37l.33-1.51c.03.12.06.42.07.56.03.34.01.72-.07,1.05l.93-.35c.19-.65.27-1.39-.03-2.02,0-.05,0-.1,0-.14,0-.04-.07-.06-.07-.07-.07-.28-.32-.6-.56-.77-1.79-1.37-5.02-.56-4.92,2.07Z"/>
      <path class="b" d="M53.18,38.49c-.61.06-1.43-.35-1.84.28-.28.02-.82.16-1.07.14-.37-.04-.4-.32-.77-.35-.26-.02-.78.18-1.08.14l1.77.35,10.52-1.05c-.05-.17-.87-.26-1.09-.27-1.17-.07-.89.15-1.62.37-.33.1-.71.06-1.04.1.04-.16-.09-.16-.2-.18-1.07-.17-2.5.34-3.58.45Z"/>
      <path class="b" d="M33.36,16.71h0c-.17.04-.27.03-.39.21-.35.44-.34,1.81-.31,2.38,0,.05,0,.09,0,.14.01.17-.02.34.02.51l.15.19c.17-.04.33-.67.38-.84,0-.02,0-.05,0-.07,0,0,.12-.04.14-.14,0-.04,0-.1,0-.14l.07-.49c.05-.11.21-.11.21-.24v-1.57c-.13-.05-.21.05-.28.07Z"/>
      <path class="b" d="M51.89,36.68h-.21v.7c.24.07.23-.67.21-.7Z"/>
      <path class="b" d="M38.3,30.79c-.22,1.3-.59,6.99-.43,8.16.02.13,0,.26.09.36l1.86.44c.03-2.6.1-5.2.21-7.79.02-.41.06-.91.27-1.24l-.83-1.3c-.79.25-1.03.56-1.17,1.37Z"/>
      <path class="b" d="M40.72,30.22l1.73-1.58h-1.63c-.19,0-.57-.22-.8-.21-.11-.07-.19-.23-.35-.21-.07.15.13.3.14.35.12.54.17.79.49,1.26.05.07.06.16.14.21l.28.18Z"/>
      <path class="b" d="M43.91,29.76l.97-2.2c.03-.17-.19-.09-.33-.13-.12-.03.02-.17-.36.13-.48.36-.86,1-1.31,1.41l1.03.79Z"/>
      <path class="b" d="M41.49,32.04l.13-.29,1.74-.2.34-1.36-1.07-.84-2.03,1.87-.25,8.46,2.38.22v-3.93c-2.01-.53-1.08-2.4-1.24-3.92Z"/>
      <path class="b" d="M37.45,30.95h0c-.3.11-1.47.65-1.53.95.2,1.53.67,2.97,1.11,4.43.08.26.06.7.28.91l.35-6.42c-.14-.06-.18.13-.21.14Z"/>
      <path class="b" d="M57.38,37.69h.5c.09-.39.1-.85,0-1.22-.11-.38-.31-.52-.69-.49v.21h0l.21,1.5Z"/>
      <polygon class="b" points="38.98 27.46 38.5 29.49 39.33 29.21 38.98 27.46"/>
      <path class="b" d="M39.61,27.32c-.08.22.1.27.14.35h0c.41.78,1.38.72,2.15.63.61-.07,1.26-.15,1.46-.84-1.29.25-2.48.2-3.75-.14Z"/>
      <path class="b" d="M37.11,40.52c.12-.35.08-.81.07-1.19-.08-2.69-1.69-5.24-1.67-7.93l1.18-.59-.97-.75c-.08-.27.47-1.6.63-1.9.04-.08.59-.8.56-.84-.35.03-.62.25-.9.42h0c-1.64.95-1.66,2.67-2.95,3.99l.66.83-.93-.28c-.28.05-.19.23-.25.35.13.03.57.41.62.49-.04.2.04.38.07.56,0,.07,0,.14,0,.21-.04-.05-.09-.09-.14-.14-.42-1.1-1.53-1.06-2.5-.84.5.9,1.02,1.86,1.04,2.93,0,.26-.03.51-.07.77-.02.13-.34.78-.28.84l2.78-.52c.11-.9.17-1.8.28-2.69.23-1.92.3-3.92,1.25-5.66h.07c-1.06,3.52-.81,7.34-1.05,10.99l1.59.4c-.13,1.78.32,4.92-2.13,5.17-.07.07-.21.87-.23,1.03-.01.15-.14.32-.03.49.03.07.14.17.29.27.08.03.15.05.23.08.33-.35.79-.58,1.29-.62.43-.04.73-.06,1.07-.08.21-1.87.43-5.1.42-5.65,0-.05,0-.09,0-.14Z"/>
      <path class="b" d="M37.42,46.26c.4,0,.77.12,1.08.32.33-.26.75-.42,1.2-.44.94-.03,1.63-.05,2.43-.05.45,0,.94,0,1.5.02.04,0,.08.01.11.02-.19-.96-.49-2.1-.59-2.72-.17-1.02-.24-2.07-.36-3.1h0c-1.67-.07-3.4-.03-5-.56l-.58,6.52s.03,0,.05,0c.04,0,.11,0,.14,0Z"/>
      <path class="b" d="M45.71,46.17s.06,0,.08,0c.23,0,.42.02.6.03-.02-.34-.04-.68-.13-1-.16-.64-.55-1.1-.67-1.87-.17-1.07-.09-2.19-.16-3.26l.56-.04c-.01-.69.05-1.04.49-1.54l2.92-.49c-.1-.6-.2-1.24-.21-1.85-.02-.99.22-1.59-.21-2.48-.11-.23-.12-.28-.28-.49-.05-.26-.14-.51-.21-.77.33.33.51.78.83,1.12.13.13.22.33.45.35.09-.03,0-.28.04-.35.13-.31.35-.94.49-1.19,0-.02.17-.13.28-.28.34-.3.72-.56,1.18-.63-.22.3-.51.45-.76.77s-.26.35-.42.7c-.24.52-.74,1.58,0,1.89.05-.34.28-.72.49-.98.7-.85,1.67-.99,2.71-1.05.14,0,.97.1.97-.03-.44-.8-3.42-5.12-4.08-5.19-.3.06-.56.28-.78.48-.83.72-.88,1.57-1.11,2.58-.19-.82.01-2.01.55-2.65.22-.26.58-.48.9-.59l-2.29-.8s.13.89.14,1.05h0c.07.93.09,1.86.06,2.79l-2.15.35c.39.5,1.05.76,1.39,1.33-1.52,1.97-2.81,4.27-3.47,6.7-.53,1.96-.3,5.11.31,7.43.18.06.35.13.5.23.29-.17.63-.26.99-.26Z"/>
      <polygon class="b" points="35.92 40.87 35.93 40.87 35.93 40.2 34.61 39.89 34.68 40.63 35.92 40.87"/>
      <path class="b" d="M49.32,40.42c-.04,1.62,0,5.71.28,7.19.15.81.69.68,1.36.66,2.37-.05,7.04-.78,9.42-1.28,2.02-.43,1.51-1.1,1.52-2.95,0-1.41.03-3.69-.14-5.02-.02-.19-.09-.51-.23-.64-.13-.12-.39-.18-.56-.16l-11.39,1.33c-.31.23-.24.54-.24.88Z"/>
      <path class="b" d="M45.71,47.67c-.24,0-.45.18-.48.42,0,0,0,0,0,0,.39.1.87-.05,1.46-.04-.05-.11-.07-.23-.1-.35-.26-.01-.53-.03-.86-.04,0,0-.01,0-.02,0Z"/>
      <polygon class="b" points="41.84 34.74 42.8 35.56 43.29 32 42.09 32.09 41.84 34.74"/>
      <path class="b" d="M32.39,32.77l.14-.14s-.21-.05-.14.14Z"/>
      <path class="b" d="M49.81,35.49c0,.25-.01.51,0,.77,0,.01-.11.12-.07.21.08.01.15,0,.22-.02.34-.07.24-.26.26-.33.02-.07,0-.27,0-.35-.04-.46-.06-.4-.45-.77-.14.03.03.45.04.49h0Z"/>
      <path class="b" d="M35.93,41.15l-1.39-.21-.42,3.84c1.83-.09,1.58-2.34,1.81-3.63Z"/>
      <path class="b" d="M48.98,41.64c-.02-.77-.19-1.63.14-2.37l-1.18-.1c-.49.26-.17,2.58-.14,3.11,0,.12,0,.23,0,.35-.01.24-.05.55.07.77,0,.18,0,.37,0,.56,0,.74.06,3.19.25,3.76.2.6.69.64,1.24.71-.2-1.47-.26-2.99-.31-4.47-.03-.77-.05-1.54-.07-2.3Z"/>
      <path class="b" d="M50.3,38.43l.77-.17c.09-.12.11-.56.13-.74.03-.3.15-.39-.07-.7l-.04-.15c-1.06-.06-1.27,1-.79,1.75Z"/>
      <path class="b" d="M45.72,41.15c-.1.12.11,2.79.49,3.07h.07l-.25-3.07h-.31Z"/>
      <polygon class="b" points="46 40.87 45.99 40.31 45.71 40.31 45.72 40.87 46 40.87"/>
      <path class="b" d="M47.17,47.75c.17.19.4.34.62.38.06-.07-.12-.95-.14-1.12.04-2.01-.2-4-.21-6.01,0-.27.06-.6-.07-.84,0-.05,0-.09,0-.14.07-.54.13-.85.42-1.33-1.2.02-1.52.6-1.25,1.75,0,.07,0,.14,0,.21-.02.32-.05.75.07,1.05-.03.82.04,1.63.14,2.44-.07.46.07,2.68.21,3.23.1.14.2.27.34.38-.04,0-.09,0-.13,0Z"/>
      <path class="b" d="M28.01,32.7c-.13.37-.07.74,0,1.12.3,1.65,1.59.8,1.32-.49l.35.49s0,.09,0,.14v.21c0,.06-.14.18-.12.3.07.53.76,1.74.79,2.42,1.04-.15.77-2,.24-2.58-.25-.91-1.68-3.36-2.57-1.61h0Z"/>
      <path class="b" d="M25.86,31.79c.11-.01.38.08.35-.1l-.38-1.15c.29-.22.82-.59,1.15-.28.09.52.61,1.13.7,1.68l.42-.26c.06-.26-.97-2.41-.97-3.14,0-.57.41-.94.55-1.49h0c.57-2.19-.59-4.82-3.02-5.03l-.1.1c1.47,1.47,2.1,4.2-.5,4.88-1.94.51-1.98-.86-2.97-2.05-.08.54-.15,1.22,0,1.75.01.05.01.11.07.14,0,.07-.01.15,0,.21.22,1.06,1.15,2.15,2.22,2.37.91.19,1.82.02,2.71-.14-.48.49-1.31.51-1.94.56.82.34,1.08,1.22,1.42,1.95.19.16.24,0,.31,0Z"/>
      <path class="b" d="M26.66,30.4l-.51.43c.25.6.19.87.89.96.09.01.39.15.35-.03-.21-.41-.32-.8-.62-1.15-.03-.04.08-.25-.1-.21Z"/>
      <path class="b" d="M32.47,38.86c.64.29,1.06.72,1.51,1.24l.07-2.44-2.98.42c-.1.58.93.56,1.41.78Z"/>
      <path class="b" d="M37.63,30.74c.25-1.21.42-2.4.87-3.56.06-.15.26-.09.21-.28l-.72-.21s-.19.28-.25.35h0c-.68.73-1.15,1.75-1.45,2.69l1.35,1.01Z"/>
      <path class="b" d="M26.28,33.61s.09,0,.14,0c.35-.06.69-.1,1.04-.07v-1.01c-.11-.15-.25-.15-.42-.17-.27-.05-.57.03-.83.07h-.07c-.17.03-.23.1-.35.14-.28.1-.48.12-.73.35-.17.14-.27.26-.31.49-.01.07,0,.2,0,.28,0,.19.11.75.37.76l1.16-.83Z"/>
      <path class="b" d="M42.66,26.62c1.19-.14,2.41-.6,3.53-.99.03-.2,0-.41,0-.62h0c.06-.97-.06-1.93-.28-2.86-3.03.44-6.12.45-9.16.14l.26,3.29c1.81.8,3.65,1.27,5.65,1.04Z"/>
      <path class="b" d="M31.27,39.26c-.84-.17-1.17-1.47-1.46-2.23-.11-.29-.16-.65-.28-.98s-.16-.68-.38-.98l-.07.21c.14.22.34.5.39.76h0c.11.59-.18.57,0,1.26.2.77,1.12,1.72-.26,1.87l-.39-.18c-.1-.37-.25-.67-.46-.98-.03-.04.02-.22-.1-.28l-.12.16c-.1.23.07.29.09.4.24,1.24.64,1,.21,2.37-.12.4-.41.72-.47,1.24-.15,1.26.37,2.31,1.58,2.74.27.2.53.32.83.45-.82-1.25-1.62-3.85.59-4.08,1.5-.16,1.6.37,2.05,1.54l.28,1.4c.33-.2.44-.91.48-1.26.22-1.69-.58-3.44-2.5-3.42Z"/>
      <path class="b" d="M32.14,41.5l-.8-.21c.57.24.91.52,1.25,1.05l-.12-.47-.33-.37Z"/>
      <path class="b" d="M26.83,35.42l1.18-.46-.62-.87c-.39-.16-.53,0-.83.14-.46.02-1.22.38-1.39.84-.04.1-.07.25-.07.35,0,.43.21.78.6.97l.58-.62c.19-.05.4-.23.56-.35Z"/>
      <polygon class="b" points="29.02 38.71 29.68 38.63 29.61 38.43 29.05 37.31 28.5 37.38 29.02 38.71"/>
      <path class="b" d="M28.44,35.44c-.11-.08-.26.06-.29.06-.11,0-.26-.02-.35,0-.47.1-1.26.56-1.53.98-.02.03-.12.06-.14.14-.21.69.67,1.45,1.32,1.29l.35-.57-.14-.34c1.28.13,1.98-.71.78-1.56Z"/>
      <path class="b" d="M39.26,18.14c-.95-1.82-2.61-.48-2.64,1.12-.02,1.14.99,2.88,2.23,1.92.05-.04.08-.13.14-.18l-.14.11-.5.06c-1.13-.28-1.27-1.69-.95-2.64l.39.28.39-.63-.15-.3c.47-.25.85.08,1.25.28Z"/>
      <path class="b" d="M49.4,18.03c-.02.39.02.79,0,1.19-.04.36.03.78,0,1.15l.21.66.19-.58.51-.26c-.07-.48-.11-.98-.07-1.47.03-.44.13-.77.21-1.19.01-.07.17-.26.21-.35v-.14c.16-.13-.05-.17-.07-.21-.14-.25-.3-.4-.62-.42-.41.07-.53,1.27-.56,1.61Z"/>
      <path class="b" d="M40.72,14.96c-.84-.1-1.4-.68-1.87-1.33-.18-.51-.3-.75-.28-1.33.04-1.07.64-1.73,1.46-2.3.72-.28,1.56-.37,2.29-.07.28.12.89.71,1.07.98.91,1.41.3,2.62-.65,3.76.84-.23,1.07-.53,1.55-1.34l.25-.48c.33-1.57-.58-3.54-2.29-3.7-.15-.01-.33,0-.49,0-1.86.04-3.33,1.2-3.4,3.14-.02.62.09,1.23.56,1.68.27.55,1.21,1.19,1.8.98Z"/>
      <path class="b" d="M46.13,15.83c.01.09.16.02.21.04.52.19.92.12,1.32.66.65.88.62,4.43-.25,5.19l-1.13.36.24,3.35c1.34-.59,2.88-1.36,3.01-3.02-.54-.4-.63-1.14-.68-1.76-.1-1.12-.21-4.14.76-4.85h0c.07-.05.4-.06.41-.07.13-1.94-1.32-3.59-3.01-4.32-.57.13-.99,3.81-.88,4.42Z"/>
      <path class="b" d="M50.8,20.46l.63.07c.57-.19.3-1.96.12-2.43l.55.07c.11-.48-.53-1.41-.97-.84-.45.4-.51.97-.56,1.54-.04.56-.03,1.08.23,1.59Z"/>
      <path class="b" d="M52.24,11.54c.03-.44-.19-.71-.62-.77-.04,0-.09,0-.14,0l-.28.07c-.06.02-.08.02-.14.07-.24.19-.27.56-.21.84.16.73,1.34.59,1.39-.21Z"/>
      <polygon class="b" points="51.41 16.39 51.62 16.5 51.62 12.66 51.41 12.66 51.41 16.39"/>
      <path class="b" d="M36,22.15c-.23-.19-.47-.2-.69-.42-.89-.86-.72-3.68-.45-4.82.06-.26.34-.48.38-.7l1.11-.28c.06-.06-.13-.59-.14-.7.02-.81.12-1.63.07-2.44,0-.09.01-.19,0-.28l.04-.84c-1.03.57-1.63,1.43-1.88,2.58-.33,1.56-.33,8.57.45,9.81.34.53,1.17,1.03,1.73,1.29l-.2-3.09-.42-.12Z"/>
      <path class="b" d="M43.08,16.18c0-.1-1.14-.03-1.25-.03-1.16,0-5.44-.19-6.18.45-.77,1.06-.94,4.31.35,5-.89-.64-.77-4.21-.11-4.75.6-.5,4.97-.61,5.94-.63l1.25-.03Z"/>
      <path class="b" d="M38.98,13.08c.44,1.6,2.41,2.08,3.68,1.08,1.35-1.06,1.02-3.58-.7-3.95-.06-.01-.03,0-.07,0-.05,0-.09,0-.14,0,0,0,0-.14,0-.14-1.79-.3-3.28,1.19-2.78,3Z"/>
      <path class="b" d="M45.55,17.71c-1.67-1.68-3.41,1.57-1.99,3.22,1.61,1.86,3.48-1.71,1.99-3.22Z"/>
      <path class="b" d="M46.27,26.55h0c-.42.17-.39.39-.56.63-.32.45-.4.62-.62,1.12-1.53,3.42-1.85,7.47-1.74,11.17.59-2.65,1.77-5.2,3.47-7.3l-1.73-1.54,2.64-.66c-.02-.82-.05-1.64-.21-2.44-.07-.36-.12-.7-.3-1.03-.42-.18-.6-.09-.95.05Z"/>
      <path class="b" d="M36,21.6l.49.21c-.05-.15-.39-.16-.49-.21Z"/>
      <path class="b" d="M46.69,11.23c-.53-.28-1.06-.57-1.67-.6h0s-.19-.16-.21-.03c.87,1.7.04,3.89-1.67,4.64-1.28.57-3.2.53-4.3-.42-.42-.36-.53-.83-.83-1.19-.28-.98-.14-1.94.24-2.86l-1.42.61-.21,4.49,9.23-.07c0-1.55.11-3.18.84-4.57Z"/>
      <path class="d" d="M53.55,48.45c-.13,0-.24.05-.31.14l.67-.09c-.09-.01-.17-.03-.28-.04-.03,0-.05,0-.07,0Z"/>
      <path class="k" d="M47.66,47.02h0c0-.99-.02-2.07-.09-3.06l-.84-.07c.02.14.03.26.03.27-.06.46.07,2.68.21,3.23h0s.01.05.02.07c0,0,0,0,0,0,.04.1.11.2.19.29,0,0,0,0,0,0,0,0,0,0,0,0,.17.19.4.34.62.38.06-.07-.12-.95-.14-1.12Z"/>
    </g>
  </g>
  <g>
    <path class="m" d="M27.59,25.72c-.04,3.13-4.27,3.91-6.04,1.75.21.94,1.09,1.45,1.8,1.95-1.07-.22-2.01-1.32-2.22-2.37l.19-.16-.12-1.17.24.07c.72,1.57,1.59,2.15,3.28,1.34,2.22-1.07,1.55-3.28.23-4.76,1.41.23,2.46,2.05,2.64,3.35h0Z"/>
    <path class="k" d="M27.66,27.04c-.14.55-.54.92-.55,1.49,0,.73,1.03,2.88.97,3.14l-.42.26c-.08-.55-.6-1.16-.7-1.68-.04-.22.15-.42.13-.51l-.3-.19c-.52-.02-1.05.17-1.35.61l-.05.38.6,1.02-.14.24c-.07,0-.12.16-.31,0-.34-.74-.6-1.61-1.42-1.95.64-.05,1.46-.07,1.94-.56-.89.16-1.8.32-2.71.14-.71-.51-1.6-1.01-1.8-1.95,1.76,2.16,6,1.38,6.04-1.75.07.5.03.85.07,1.33h0Z"/>
    <path class="c" d="M27.66,27.04c-.04-.48,0-.83-.07-1.33-.17-1.3-1.23-3.12-2.64-3.35,1.32,1.49,1.99,3.7-.23,4.76-1.68.81-2.56.23-3.28-1.34l-.24-.07.12,1.17-.19.16c-.01-.06,0-.14,0-.21,0-.02.2-.17-.07-.14-.15-.53-.08-1.21,0-1.75,1,1.19,1.03,2.55,2.97,2.05,2.6-.68,1.97-3.4.5-4.88l.1-.1c2.43.21,3.59,2.83,3.02,5.03ZM21.21,25.51v-.14h-.07v.14h.07Z"/>
    <path class="o" d="M30.58,34.31c.06.23.21,1.19.14,1.36l-.17.04-.87-1.54v-.21s0-.09,0-.14c.02-.66-.06-.96-.69-1.33.24.55.2,1.16.03,1.75h-.87c0-.12,0-.23,0-.35-.02-.22.05-1.04.15-1.21l.54-.33-.64.07-.19.28c.89-1.76,2.32.7,2.57,1.61Z"/>
    <path class="c" d="M33.77,42.69h-.07c.12-1.25-.52-2.5-1.74-2.86-2.56-.77-4.81,2.11-3.19,4.05.15.18.6.65.76.77-1.21-.43-1.73-1.48-1.58-2.74.06-.52.34-.84.47-1.24.33.09.65-.57.94-.77.41-.29,1.42-.62,1.91-.63,1.92-.02,2.72,1.73,2.5,3.42Z"/>
    <path class="m" d="M31.27,39.26c-.49,0-1.5.34-1.91.63-.29.2-.61.86-.94.77.43-1.38.04-1.13-.21-2.37l.14-.28c.21.31.36.62.46.98l.39.18c1.37-.15.46-1.09.26-1.87l.35-.28c.29.76.62,2.06,1.46,2.23h0Z"/>
    <path class="o" d="M27.39,34.1l.06.65c-.17.12-.5.59-.61.67-.15.12-.37.3-.56.35-.19.05-.45.1-.64.05l-.54-.4c0-.1.03-.25.07-.35.09.31.31-.19.53-.34.16-.1.71-.44.86-.5.31-.14.44-.29.83-.14Z"/>
    <path class="p" d="M28.15,35.49s.18-.14.29-.06c1.21.85.51,1.68-.78,1.56l.14.34-.35.57c-.65.16-1.52-.61-1.32-1.29l.17.49.07-.28.56.29c.58-.31.52-.7,1.33-.54l.18-.49-.57-.37.28-.21h0Z"/>
    <path class="o" d="M27.04,32.35l-.35.14c.16.55.06.72-.28,1.12-.04,0-.1,0-.14,0-.43.08-.93.13-1.29.42l-.24-.35c0-.08-.01-.21,0-.28.27-.37.7-.49,1.07-.71.13-.07.2-.15-.02-.13.12-.04.18-.11.35-.14.02,0,.05,0,.07,0,.27-.04.56-.12.83-.07Z"/>
    <path class="o" d="M28.15,35.49l-.28.21.57.37-.18.49c-.81-.16-.75.24-1.33.54l-.56-.29-.07.28-.17-.49c.02-.08.12-.11.14-.14.09.19.16.05.23-.02.42-.37.87-.61,1.3-.96.09-.02.24,0,.35,0h0Z"/>
    <path class="p" d="M29.68,34.17l.87,1.54.17-.04c.07-.16-.08-1.13-.14-1.36.53.58.81,2.43-.24,2.58-.03-.68-.72-1.89-.79-2.42-.02-.12.12-.24.12-.3h0Z"/>
    <path class="m" d="M26.97,30.25c-.33-.31-.86.06-1.15.28l.38,1.15c.03.18-.24.09-.35.1l.14-.24-.6-1.02.05-.38c.3-.44.83-.63,1.35-.61l.3.19c.02.09-.17.29-.13.51h0Z"/>
    <path class="p" d="M29.68,33.82l-.35-.49c.27,1.29-1.02,2.14-1.32.49l.14.07c0,.12,0,.23,0,.35h.87c.17-.58.21-1.2-.03-1.75.64.36.71.66.69,1.33h0Z"/>
    <path class="p" d="M27.04,32.35c.16.03.3.03.42.17v1.01c-.35-.03-.69.01-1.04.07.33-.4.44-.57.28-1.12l.35-.14Z"/>
    <path class="k" d="M29.05,37.31c.21.37.01.99.56,1.12l.07.21-.66.07-.52-1.33.56-.07Z"/>
    <path class="p" d="M26.83,35.42c.11-.08.45-.56.61-.67l-.06-.65.62.87-1.18.46Z"/>
    <path class="k" d="M27.04,31.79c-.7-.09-.64-.36-.89-.96l.51-.43c.19-.05.07.17.1.21-.41.35.16.85.28,1.19Z"/>
    <path class="p" d="M24.75,33.68l.24.35c.36-.29.85-.34,1.29-.42l-1.16.83c-.26,0-.36-.56-.37-.76Z"/>
    <path class="p" d="M25.09,35.42l.54.4c.19.04.45,0,.64-.05l-.58.62c-.4-.19-.6-.54-.6-.97Z"/>
    <path class="m" d="M26.76,30.6c.3.36.42.75.62,1.15.04.19-.26.04-.35.03-.12-.34-.69-.83-.28-1.19Z"/>
    <path class="m" d="M29.82,37.03l-.35.28c-.18-.69.11-.67,0-1.26h.07c.12.33.17.69.28.98Z"/>
    <path class="m" d="M33.01,42.55c.12.32.27.63.28.98.18-.01.41-.75.42-.84h.07c-.05.35-.15,1.06-.48,1.26l-.28-1.4Z"/>
    <path class="d" d="M32.59,42.34c-.34-.52-.67-.81-1.25-1.05l.8.21.33.37.12.47Z"/>
    <path class="m" d="M29.05,37.31c.21.37.01.99.56,1.12l-.56-1.12Z"/>
    <path class="k" d="M29.47,36.05c-.05-.26-.25-.54-.39-.76l.07-.21c.22.29.27.66.38.98h-.07,0Z"/>
    <path class="m" d="M28.36,38.01l-.14.28c-.02-.11-.19-.17-.09-.4l.12-.16c.13.05.08.24.1.28Z"/>
    <path class="m" d="M21.07,26.69c.27-.03.07.12.07.14-.06-.03-.05-.09-.07-.14Z"/>
    <path class="k" d="M32.66,42.41h-.07v.14h.07v-.14Z"/>
    <path class="p" d="M26.14,32.42s.05,0,.07,0h-.07Z"/>
    <path class="k" d="M33.7,42.69c0,.09-.24.82-.42.84-.01-.35-.16-.66-.28-.98-.45-1.16-.54-1.69-2.05-1.54-2.22.24-1.41,2.84-.59,4.08-.3-.14-.56-.26-.83-.45-.16-.12-.62-.59-.76-.77.67-.41.41-1.64.57-2.18.29-.99,1.85-1.48,2.76-1.17l-.14-.7c1.21.36,1.86,1.61,1.74,2.86Z"/>
    <path class="m" d="M31.97,39.82l.14.7c-.91-.31-2.48.18-2.76,1.17-.16.55.1,1.78-.57,2.18-1.61-1.94.63-4.82,3.19-4.05Z"/>
    <path class="m" d="M21.21,25.37h-.07v.14h.07v-.14Z"/>
    <path class="d" d="M40.98,48.6v-.2h1.4c.04.12,1.31,7.23,1.35,7.35.29.08,1.21-.53,1.46-.41l-3.31-12.06-3.15-.88.94,1.43-.37,5.14c.49-.2,1.05-.33,1.68-.36ZM41.13,46.17h0c.04-.82.15-1.63.24-2.45l.1-.07c.07.05.29,1.59.35,1.82.18.76.49,1.51.56,2.3h-1.22l-.11-.24c-.01-.46.05-.91.07-1.37Z"/>
    <rect class="d" x="32.59" y="42.41" width=".07" height=".14"/>
    <path class="n" d="M49.33,27.95c-.54.65-.74,1.83-.55,2.65.22-1.01.28-1.86,1.11-2.58,1.21.66,2.12,1.79,2.91,2.9-.57.14-1.08.26-1.6.55-.34.19-.43.35-.62.6-.11.15-.27.26-.28.28l-2.01-.77s.18.73.21.84c.07.25.16.51.21.77-.13-.18-.62-.4-.56-.77l-.62,5.45c-.54.16-.69.22-1.04.63-.44.5-.5.85-.49,1.54l-.56.04c.07,1.07-.01,2.19.16,3.26.13.77.51,1.23.67,1.87-.09.02-.11.03-.17.04-.03,0-.05,0-.11,0-.53,0-1.62.09-1.91.11-.39-2.32-.8-4.23-.17-6.57l3.61-6.6c.03-.17-.13-.08-.14-.1-.34-.57-1-.82-1.39-1.33l2.15-.35c.03-.93,0-1.86-.06-2.79l1.25.35Z"/>
    <path class="f" d="M43.16,43.41c-.17-1.02-.24-2.07-.36-3.1h0c-1.67-.07-3.4-.03-5-.56l-.71,8.05-.03.04c.2.02.41.03.61.07.32.05.64.16.95.26.22,0,.53-.03.74-.03l.31-4.31-.94-1.43,3.15.88,2.85,10.29s-.09-3.13-.06-3.13c.2,0-.32-1.45-.46-2.01-.05-.14.05.09,0,0-.03-.07-.19-1.02-.2-1.04-.17-.8-.7-3.01-.86-3.98Z"/>
    <path class="c" d="M36,27.74c.13.25-.02.4.35.42-.15.31-.71,1.63-.63,1.9l.97.75-1.18.59c-.02,2.68,1.59,5.24,1.67,7.93-.32.11-.07.96-.07,1.19,0,.05,0,.09,0,.14l-.69,4.76h0c-.84-.18-1.96.18-2.52.19.01-.17.1-.39.17-.46,2.44-.25,1.99-3.4,2.13-5.17l-1.59-.4c.23-3.65-.01-7.47,1.05-10.99l.1-.28-.17.28c-.39.15-.68.92-.81,1.38-.31,1.04-.4,2.28-.51,3.37l-.42-.56-.35,1.4c-.18.04-.19-.16-.28-.28,0-.07,0-.14,0-.21.32.01.06-.4-.07-.56-.06-.07-.5-.46-.62-.49.06-.12-.04-.3.25-.35l.93.28-.66-.83c1.29-1.31,1.31-3.04,2.95-3.98h0Z"/>
    <path class="c" d="M47.52,27.53c.16.8.18,1.63.21,2.44l-2.64.66,1.73,1.54c-1.7,2.1-2.88,4.65-3.47,7.3-.11-3.7.21-7.76,1.74-11.17.84-.31,1.44-.95,2.43-.77h0Z"/>
    <path class="g" d="M43.7,30.19l-.34,1.36-1.74.2-.13.29c.16,1.52-.76,3.38,1.25,3.92v3.93s-2.39-.22-2.39-.22l.25-8.46,2.03-1.87,1.07.84Z"/>
    <path class="f" d="M39.46,29.42l.83,1.3c-.22.34-.26.84-.27,1.24-.11,2.59-.17,5.19-.21,7.79l-1.86-.44c-.09-.11-.07-.24-.09-.36-.16-1.18.21-6.87.43-8.16.14-.81.38-1.12,1.17-1.37Z"/>
    <path class="m" d="M35.58,28.58c-.95,1.73-1.02,3.74-1.25,5.66-.44.39-.09,1.39-.52,1.89l-2.26.49c.04-.25.07-.51.07-.77l1.21-.42.25-1.67s.1.09.14.14c.09.12.1.32.28.28l.35-1.4.42.56c.11-1.08.2-2.32.51-3.37.14-.46.42-1.23.81-1.38h0Z"/>
    <path class="m" d="M49.88,28.02c.22-.2.47-.42.78-.48.65.08,3.64,4.39,4.08,5.19,0,.14-.83.03-.97.03.08-.35-.4-.59-.42-.63-.08-.17.15-.14.14-.17-.27-.56-1.19-.61-1.74-.53-.46.07-.85.32-1.18.63.18-.25.28-.41.62-.6.52-.29,1.04-.41,1.6-.55-.8-1.11-1.7-2.24-2.91-2.9h0Z"/>
    <path class="m" d="M47.52,37.87l.62-5.45c-.06.37.43.59.56.77.15.21.17.26.28.49l-.42,4.04c-.05.07-.86.09-1.03.15Z"/>
    <path class="c" d="M33.08,33.75l-.25,1.67-1.21.42c-.02-1.07-.54-2.04-1.04-2.93.97-.22,2.07-.26,2.5.84Z"/>
    <path class="c" d="M37.45,30.95l-.42,5.38c-.44-1.46-.92-2.9-1.11-4.43.06-.3,1.23-.84,1.53-.95Z"/>
    <path class="c" d="M35.93,41.15c-.22,1.29.03,3.54-1.81,3.63l.42-3.84,1.39.21Z"/>
    <path class="c" d="M38.5,27.18c-.45,1.16-.62,2.35-.87,3.56l-1.35-1.01c.3-.95.77-1.96,1.45-2.69l.76.14Z"/>
    <path class="f" d="M42.8,35.56l-.95-.82.24-2.66,1.2-.08-.49,3.56Z"/>
    <path class="c" d="M51.76,31.44c.55-.08,1.47-.03,1.74.53.02.03-.22,0-.14.17.02.04.49.28.42.63-1.04.06-2.01.19-2.71,1.05-.17-.16-.13-.64-.07-.84.08-.24.47-.6.7-.73l-.56.14-.14-.17c.25-.32.54-.47.76-.77h0ZM51.93,32v.07l.03-.03-.03-.03ZM51.79,32.07v.07l.03-.03-.03-.03Z"/>
    <path class="m" d="M36.78,45.43h-.36s.69-4.77.69-4.77"/>
    <path class="k" d="M48.98,33.68c.42.89.18,1.49.21,2.48.01.61.11,1.25.21,1.85l-2.92.49c.35-.41.5-.47,1.04-.63.18-.05.98-.08,1.03-.15l.42-4.04Z"/>
    <path class="k" d="M34.33,34.24c-.11.9-.17,1.79-.28,2.69l-2.78.52c-.06-.06.26-.71.28-.84l2.26-.49c.43-.5.08-1.5.52-1.89h0Z"/>
    <path class="k" d="M41.76,45.13c.18.76,1.98,9.44,2.04,10.23l-1.48.1-1.32-8.27c-.01-.46.05-.91.07-1.37l.14-.7h.56Z"/>
    <path class="f" d="M44.55,27.44c.14.03.36-.04.33.13l-.97,2.2-1.03-.79c.45-.41.83-1.05,1.31-1.41.39-.29.24-.15.36-.13Z"/>
    <path class="m" d="M50.3,32.35c-.14.25-.35.87-.49,1.19h-.49c-.33-.34-.5-.79-.83-1.12-.03-.11-.24-.81-.21-.84l2.01.77Z"/>
    <path class="m" d="M47.38,32.07s.17-.07.14.1l-3.61,6.6c.66-2.43,1.95-4.73,3.47-6.7Z"/>
    <path class="m" d="M48.08,27.6c-.01-.16-.18-1-.14-1.05l2.29.8c-.32.11-.69.34-.9.59l-1.25-.35h0Z"/>
    <path class="m" d="M46.27,26.55c.35-.14.53-.23.95-.05.18.33.23.67.3,1.03-.99-.18-1.59.46-2.43.77.22-.5.3-.66.62-1.12l1.17-.22v-.41s-.61,0-.61,0Z"/>
    <path class="p" d="M39.74,27.67c-.04-.07-.22-.13-.14-.35,1.27.34,2.46.39,3.75.14-.2.69-.85.77-1.46.84l-.1-.28-2.05-.34h0Z"/>
    <path class="p" d="M40.02,28.44c.23-.02.61.21.8.21h1.63l-1.73,1.58-.28-.18,1.04-.7-.83-.35.35-.14c-.25-.1-.63-.11-.86-.22-.12-.06-.1-.19-.11-.2h0Z"/>
    <path class="m" d="M37.45,30.95s.07-.19.21-.14l-.35,6.42c-.22-.21-.2-.65-.28-.91l.42-5.38h0Z"/>
    <path class="o" d="M40.02,28.44s0,.13.11.2c.22.12.61.12.86.22l-.35.14.83.35-1.04.7c-.07-.05-.09-.14-.14-.21-.01-.41-.07-1.09-.49-1.26-.01-.05-.21-.2-.14-.35.16-.02.24.14.35.21h0Z"/>
    <path class="c" d="M35.93,40.87l-1.25-.24-.07-.73,1.32.31v.67Z"/>
    <path class="m" d="M41.76,45.13h-.56l-.14.7c.04-.82.15-1.63.24-2.45l.1-.07c.07.05.29,1.59.35,1.82h0Z"/>
    <path class="o" d="M39.74,27.67l2.05.34.1.28c-.77.09-1.74.15-2.15-.63Z"/>
    <path class="f" d="M39.33,29.21l-.83.28.49-2.02.35,1.74Z"/>
    <path class="m" d="M46.27,26.55h.62v.41s-1.18.22-1.18.22c.17-.23.14-.46.56-.63Z"/>
    <path class="m" d="M50.99,32.21l.14.17.56-.14c-.22.13-.62.5-.7.73-.17.1-.33.13-.42-.07.16-.35.17-.39.42-.7h0ZM50.96,32.49v.07l.03-.03-.03-.03Z"/>
    <path class="m" d="M36,27.74c.29-.17.55-.39.9-.42.04.03-.52.76-.56.84-.37-.02-.21-.17-.35-.42Z"/>
    <path class="m" d="M37.73,27.04c.06-.07.22-.35.25-.35l.72.21c.05.19-.15.13-.21.28l-.76-.14h0Z"/>
    <path class="o" d="M39.81,28.58c.41.17.47.85.49,1.26-.31-.47-.37-.72-.49-1.26Z"/>
    <path class="m" d="M37.18,39.33c.01.37.05.84-.07,1.19,0-.23-.26-1.07.07-1.19Z"/>
    <path class="c" d="M33.15,33.12c.13.16.39.57.07.56-.03-.18-.11-.36-.07-.56Z"/>
    <path class="d" d="M32.52,32.63l-.14.14c-.07-.19.13-.13.14-.14Z"/>
    <path class="k" d="M35.65,28.58h-.07l.17-.28-.1.28Z"/>
    <path class="m" d="M51.93,32l.03.03-.03.03v-.07Z"/>
    <path class="m" d="M51.79,32.07l.03.03-.03.03v-.07Z"/>
    <path class="c" d="M33.77,38.01v1.47c-.62-.6-1.4-.93-2.22-1.15l2.22-.31Z"/>
    <path class="c" d="M50.96,32.49l.03.03-.03.03v-.07Z"/>
    <path class="o" d="M55.78,34.03c.24.17.48.49.56.77l.07.07s0,.09,0,.14l-.11,1.25-.28.21-.45-.14c-.01-.14-.04-.44-.07-.56-.04-.15-.05-.32-.13-.46l-.28-.1v1.08c0,.05-.27.46-.35.49l-.41-.07c-.21-.02-.54-2.19-.9-1.78v1.72c-.42.35-.74.03-1.11-.18-.1-.45-.28-.87-.62-1.19l-.2.05-.15.86c-.09-.01-.35.1-.44.03-.11-.09,0-.75,0-.75l.1-.39s.02-.07.04-.11l.15-.28c.03-.07.08-.13.14-.17,1.17-.78,3.23-1.36,4.46-.5h0Z"/>
    <path class="c" d="M61.52,38.38c.14.13.2.45.23.64.17,1.34.15,3.62.14,5.02,0,1.85.5,2.52-1.52,2.95-2.38.5-7.05,1.23-9.42,1.28-.67.01-1.21.15-1.36-.66-.27-1.48-.32-5.57-.28-7.19,0-.33-.06-.65.24-.88l11.39-1.33c.18-.02.43.05.56.16h0ZM49.95,45.48l.02,2.25c.08.22.37.31.58.33.92.1,3.31-.37,4.36-.5,2.15-.28,4.3-.64,6.43-1.01.23-.14.39-.5.42-.76.14-1.14,0-5.19-.14-6.43-.02-.23-.07-.46-.14-.68l-.42-.19-11.18,1.29c-.13.1-.2.53-.21.7-.06,1.01.09,4,.28,4.99h0Z"/>
    <path class="k" d="M49.05,43.94c.05,1.48.11,3,.31,4.47-.55-.07-1.04-.11-1.24-.71-.2-.6-.25-3.02-.25-3.76h1.18Z"/>
    <path class="m" d="M47.8,42.27c.03-.81.02-1.61.06-2.41.37-.29.89.51.96.79.07.28-.14.87.15,1,.02.77.04,1.54.07,2.3h-1.18c0-.19,0-.37,0-.56,0-.18.24-.82-.07-.77,0-.12,0-.23,0-.35Z"/>
    <path class="p" d="M52.31,36.47c.37.21.69.53,1.12.18v-1.72c.36-.41.69,1.75.9,1.78l.41.07c.08-.03.35-.44.35-.49v-1.08l.28.1c.08.14.1.3.13.46l-.33,1.51c-.24.47-.77.36-1.19.37l-.28-2.1v.45s0,1.33,0,1.33c0,.53-.79.85-1.22.53-.16-.17-.1-1.09-.17-1.4h0Z"/>
    <path class="m" d="M46.76,44.15c-.1-.81-.17-1.62-.14-2.44,0-.18.25-.99-.07-1.05,0-.07,0-.14,0-.21h0c.02-.16.12-.38.08-.58l.2-.23.55.39s0,.09,0,.14c-.02.22-.23.86.07.84.01,2,.24,4,.21,6.01"/>
    <path class="m" d="M56.96,38.22c.34-.04.71,0,1.04-.1.73-.22.45-.45,1.62-.37.21.01,1.04.1,1.09.27l-10.52,1.05-1.77-.35c.3.04.82-.17,1.08-.14.37.03.4.31.77.35.24.03.79-.12,1.07-.14,1.86-.13,3.78-.32,5.62-.56Z"/>
    <path class="c" d="M47.8,42.27c-.03-.53-.35-2.85.14-3.11l1.18.1c-.33.74-.16,1.58-.14,2.37-.29-.12-.09-.72-.15-1-.07-.28-.59-1.08-.96-.79-.05.81-.03,1.6-.06,2.41Z"/>
    <path class="m" d="M51.34,38.77c.41-.63,1.23-.22,1.84-.28,1.08-.11,2.52-.62,3.58-.45.12.02.24.01.2.18-1.85.24-3.77.43-5.62.56Z"/>
    <path class="p" d="M56.41,35c.3.64.22,1.37.03,2.02l-.93.35c.08-.33.1-.71.07-1.05l.45.14.28-.21.11-1.25Z"/>
    <path class="c" d="M46.55,40.45c-.27-1.14.05-1.73,1.25-1.75-.28.47-.34.79-.42,1.33l-.55-.39-.2.23c.03.2-.07.42-.08.58h0Z"/>
    <path class="k" d="M50.58,32.91c.08.2.25.16.42.07-.06.19-.1.68.07.84-.21.26-.44.64-.49.98-.74-.31-.24-1.36,0-1.89Z"/>
    <path class="k" d="M57.17,36.19c.41-.11.42.16.69.28.11.38.1.83,0,1.22h-.5s-.21-1.5-.21-1.5h0Z"/>
    <path class="n" d="M46.2,44.22c-.38-.28-.59-2.95-.49-3.07h.31s.25,3.07.25,3.07h-.07,0Z"/>
    <path class="k" d="M51.13,36.82c.22.3.1.4.07.7l-.35-.1-.56.87c-.21-.7.03-1.44.83-1.47Z"/>
    <path class="k" d="M50.3,38.29l.56-.87.35.1c-.02.18-.05.62-.13.74l-.77.17s.01-.1,0-.14Z"/>
    <path class="m" d="M50.3,38.43c-.48-.75-.26-1.81.79-1.75l.04.15c-.8.03-1.04.76-.83,1.47.01.04,0,.1,0,.14Z"/>
    <path class="p" d="M51.69,35.28l.21,1.05c-.21.02-.34-.11-.55-.14l.15-.86.2-.05Z"/>
    <path class="c" d="M50.23,35.77c0,.08.02.28,0,.35l-.42.14c-.01-.25,0-.51,0-.77l.42.28Z"/>
    <path class="n" d="M45.99,40.31h-.28s0,.56,0,.56h.28s0-.56,0-.56Z"/>
    <path class="m" d="M46.55,40.66c.32.06.07.87.07,1.05-.11-.3-.09-.73-.07-1.05Z"/>
    <path class="m" d="M57.87,36.47c-.28-.12-.28-.39-.69-.28v-.21c.38-.03.58.11.69.49Z"/>
    <path class="p" d="M51.89,36.68s.03.77-.21.7v-.7h.21Z"/>
    <path class="k" d="M49.81,33.54c-.03.07.05.32-.04.35-.23-.02-.32-.22-.45-.35h.49Z"/>
    <path class="m" d="M47.45,41.01c-.3.03-.09-.62-.07-.84.13.24.07.57.07.84Z"/>
    <path class="m" d="M47.8,42.62c.31-.05.08.59.07.77-.12-.22-.08-.53-.07-.77Z"/>
    <path class="p" d="M56.34,34.79l.07.07s-.07-.06-.07-.07Z"/>
    <path class="m" d="M61.06,38.5c0,2.37.16,6.15-2.19,7.54-1.3.77-6.52,1.79-7.84,1.25-.62-.26-.97-1.18-1.08-1.81-.19-.99-.35-3.98-.28-4.99.01-.17.08-.6.21-.7l11.18-1.29h0ZM54.81,44.36s.09,0,.14,0l.07,1.96,2.11-.22.05-2.01,1.86-.29-.06-2.16-1.94.21-.07-2.1-2.29.21.14,2.24-2.16.25.14,2.12c.62-.09,1.25-.1,1.87-.14.06,0,.11,0,.14-.07h0Z"/>
    <path class="k" d="M61.06,38.5l.42.19c.07.22.11.45.14.68.13,1.24.28,5.29.14,6.43-.03.26-.19.62-.42.76-2.13.37-4.28.73-6.43,1.01-1.05.14-3.44.6-4.36.5-.21-.02-.49-.11-.58-.33l-.02-2.25c.12.62.46,1.55,1.08,1.81,1.32.54,6.54-.47,7.84-1.25,2.34-1.39,2.18-5.17,2.19-7.54h0Z"/>
    <path class="o" d="M54.67,44.43c-.63.04-1.25.05-1.87.14l-.14-2.12,2.16-.25-.14-2.24,2.29-.21.07,2.1,1.94-.21.06,2.16-1.86.29-.05,2.01-2.11.22-.07-1.96h-.14c-.03.05-.01.07-.14.07h0Z"/>
    <path class="k" d="M46.34,15.87c.04-1.39.15-2.85.73-4.12,1.56.67,2.64,2.31,2.53,4.05-.97.71-.86,3.73-.76,4.85.05.63.14,1.36.68,1.76-.13,1.67-1.67,2.43-3.01,3.02l-.24-3.35,1.13-.36c.88-.76.91-4.31.25-5.19-.4-.54-.8-.47-1.32-.66h0Z"/>
    <path class="m" d="M42.66,26.62c-2,.23-3.84-.24-5.65-1.04l-.26-3.29c3.04.31,6.13.3,9.16-.14.22.94.34,1.9.28,2.86l-.28-1.26c-.11,1.04-.61,1.81-1.55,2.25-.51.24-1.28.24-1.71.62h0ZM45.09,22.92c-2.54.5-4.88.64-7.43.11.95,1.68,1.3,2.78,3.51,2.76,2.14-.02,3.07-1.04,3.92-2.87h0Z"/>
    <path class="c" d="M36.27,12.52c-.01-.09-.14-.26-.07-.42-.24.53-1.16,1.75-1.22,2.3-.04.36.35,1.3.25,1.82-.04.22-.32.44-.38.7-.27,1.13-.44,3.95.45,4.82l-.21.17c.1,1.13-.08,2.38,1.15,2.9l-.24-2.65.42.12.2,3.09c-.56-.26-1.4-.76-1.73-1.29-.78-1.24-.78-8.25-.45-9.81.24-1.15.85-2.02,1.88-2.58l-.04.84Z"/>
    <path class="c" d="M45.55,17.71c1.49,1.51-.37,5.08-1.99,3.22-1.43-1.65.32-4.9,1.99-3.22ZM43.7,18.59c-.31.63-.21,2.13.57,2.39,1.73.57,2.11-3.04.36-3.16l-.59.32.5.19-.12.55-.41.05-.33-.33Z"/>
    <path class="k" d="M42.24,9.16c1.71.16,2.62,2.13,2.29,3.7l-.29.54c-.16.36-.47,1.02-1.52,1.28.95-1.15,1.56-2.35.65-3.76-.18-.28-.79-.87-1.07-.98l-.07-.77h0Z"/>
    <path class="c" d="M38.98,13.08c-.5-1.81.99-3.3,2.78-3,0,0,0,.13,0,.14,0,0,.06.19.14,0,.04,0,.01-.01.07,0,.39.44.84,1.02.97,1.61h-1.11v-1.19h-1.32v1.19h-1.18v1.19c-.06,0-.25.07-.35.07Z"/>
    <path class="c" d="M38.84,21.18c-1.24.96-2.25-.78-2.23-1.92.03-1.59,1.69-2.94,2.64-1.12-.4-.2-.77-.53-1.25-.28,0,0,.16.08.23.16.06.07.09.12.13.21.03.09.04.15.03.24,0,.1,0,.17-.07.24-.07.1-.16.11-.28.14-.11.02-.17.02-.28,0-.1-.02-.16-.04-.24-.1-.08-.07-.15-.23-.15-.23-.32.95-.17,2.36.95,2.64l.5-.06v.07Z"/>
    <path class="m" d="M38.98,13.08c.1,0,.28-.07.35-.07.09,0,.19,0,.28,0l-.21.14,1.11.98c.21,0,.42,0,.62,0,.9.35,1.63-.3,1.81-1.12.1-.45.11-.73,0-1.19-.14-.58-.59-1.17-.97-1.61,1.72.36,2.04,2.89.7,3.95-1.27,1-3.24.52-3.68-1.08Z"/>
    <path class="m" d="M36.27,12.52c.01.09,0,.19,0,.28-.21-.04-.13.11-.14.24-.03.73-.02,1.47.07,2.2.01.11.2.64.14.7l-1.11.28c.1-.51-.29-1.45-.25-1.82.06-.55.98-1.77,1.22-2.3-.06.16.06.32.07.42Z"/>
    <path class="k" d="M51.13,17.34c.44-.57,1.08.36.97.84l-.55-.07c.18.47.46,2.24-.12,2.43l-.63-.07c-.26-.5-.27-1.03-.22-1.59l.21-.27.48.06c.17-.47-.16-.83-.14-1.33h0Z"/>
    <path class="m" d="M46.34,15.87c-.05-.02-.2.05-.21-.04-.11-.61.31-4.29.88-4.42,1.69.73,3.14,2.38,3.01,4.32-.01.02-.34.02-.41.07.11-1.74-.97-3.38-2.53-4.05-.58,1.28-.69,2.73-.73,4.12h0Z"/>
    <path class="c" d="M41.83,16.15v.07c-.97.02-5.34.13-5.94.63-.66.54-.78,4.11.11,4.75-1.29-.68-1.12-3.94-.35-5,.74-.64,5.02-.46,6.18-.45Z"/>
    <path class="m" d="M35.3,21.73c.22.21.46.22.69.42l.24,2.65c-1.23-.52-1.05-1.77-1.15-2.9l.21-.17Z"/>
    <path class="k" d="M46.2,25.02c-.01.21.02.41,0,.62-1.13.39-2.34.85-3.53.99.44-.37,1.2-.38,1.71-.62.94-.44,1.44-1.21,1.55-2.25l.28,1.26h0Z"/>
    <path class="k" d="M45.02,10.63c.82,1.79.2,4.14-1.71,4.88l-.16-.27c1.71-.76,2.54-2.95,1.67-4.64.02-.12.2.03.21.03Z"/>
    <path class="k" d="M33.36,16.71c.07-.02.15-.12.28-.07v1.57c0,.13-.16.13-.21.24,0,0-.11-.04-.14.04-.07.2.08.42.07.44,0,.04.01.1,0,.14l-.02.06s-.11.13-.12.15l-.56.14s0-.09,0-.14l.27-.82c0-.39-.02-.72.08-1.1.08-.31.39-.42.34-.67Z"/>
    <path class="k" d="M50.23,18.73c-.04.48,0,.99.07,1.47l-.51.27-.19.57-.21-.66c.02-.37-.04-.79,0-1.15.02-.14.14-.36.07-.56l.76.07h0Z"/>
    <path class="m" d="M41.76,9.16c-.67.27-1.16.43-1.74.84-.82.57-1.42,1.23-1.46,2.3h-.21c.07-1.94,1.54-3.1,3.4-3.14Z"/>
    <path class="k" d="M50.02,16.85c-.13.42-.1.56,0,.98l.07-.24.35-.04c-.08.42-.17.75-.21,1.19l-.76-.07c.07.2-.05.41-.07.56.02-.39-.02-.8,0-1.19l.25-.13c.09-.34-.08-.9.38-1.05Z"/>
    <path class="m" d="M32.87,12.66v3.53s-.21.23-.28.24v-3.77h.28Z"/>
    <path class="o" d="M52.24,11.54c-.26.08-.34.14-.62.21.02-.22.02-.24-.21-.21l.07.21c-.28.04-.38-.02-.62,0-.06-.28-.03-.65.21-.84v.56c.07-.31.15-.52.52-.49l.03-.21c.44.05.65.33.62.77h0Z"/>
    <path class="k" d="M42.24,9.16l.07.77c-.73-.3-1.57-.21-2.29.07.58-.41,1.07-.56,1.74-.84.16,0,.33-.01.49,0Z"/>
    <path class="o" d="M33.5,11.47c-.45,0,.06.23-.49.28.07-.32-.28-.31-.21,0-.16.02-.33-.01-.49,0l.07.28c-.42-.34-.36-.58-.07-.98l-.04.42c.19-.32.23-.46.66-.42v-.21l-.63.21c.41-.56,1.17-.23,1.18.42h0Z"/>
    <path class="m" d="M51.62,12.66v3.84l-.21-.1v-3.74h.21Z"/>
    <path class="k" d="M51.13,17.34c-.02.5.31.85.14,1.33l-.48-.06-.21.27c.04-.56.1-1.14.56-1.54Z"/>
    <path class="m" d="M33.36,16.71c.05.25-.27.36-.34.67-.1.38-.07.71-.08,1.1l-.27.82c-.03-.57-.04-1.94.31-2.38.12-.18.22-.16.39-.21h0Z"/>
    <path class="p" d="M52.24,11.54c-.05.79-1.23.94-1.39.21.24-.02.34.04.62,0,.04,0,.1,0,.14,0,.29-.07.36-.13.62-.21Z"/>
    <path class="p" d="M33.5,11.47c.01.61-.58.99-1.11.56l-.07-.28c.16-.01.33.01.49,0,.07,0,.14,0,.21,0,.54-.04.04-.29.49-.28h0Z"/>
    <path class="k" d="M50.65,17.2c-.04.09-.19.28-.21.35l-.35.04-.07.24c-.11-.42-.13-.56,0-.98l.07-.07.56.42Z"/>
    <path class="m" d="M38.84,14.82l-.14.18-.97-1.57c.13-.03.2.12.28.21.3.36.41.83.83,1.19h0Z"/>
    <path class="m" d="M49.95,16.43c.11.17.31.11.14.35l-.07.07c-.46.16-.29.72-.38,1.05l-.25.13c.02-.34.15-1.53.56-1.61Z"/>
    <path class="k" d="M32.32,18.38c0,.3-.12.64-.08.97l-.48.29c-.13-.28-.01-.5,0-.77.51.12.22-.48.56-.49h0Z"/>
    <path class="k" d="M38.84,13.63c.47.65,1.04,1.23,1.87,1.33-.59.21-1.53-.43-1.8-.98-.08-.15-.04-.26-.07-.35Z"/>
    <path class="k" d="M38.56,12.31c-.02.57.1.82.28,1.33.03.09,0,.2.07.35-.47-.44-.58-1.06-.56-1.68h.21Z"/>
    <path class="k" d="M33.22,19.29c-.05.17-.21.79-.38.84l-.15-.19c-.04-.17,0-.34-.02-.51l.56-.14Z"/>
    <path class="k" d="M32.32,17.82c.02.16,0,.39,0,.56-.33,0-.05.61-.56.49,0-.19-.03-.46,0-.63l.34.07c.11-.19-.02-.55.21-.49Z"/>
    <path class="c" d="M36.27,12.8c.05.81-.05,1.63-.07,2.44-.09-.73-.1-1.47-.07-2.2,0-.13-.07-.28.14-.24Z"/>
    <path class="m" d="M31.76,18.24c.05-.25.13-.5.35-.66l.21-.03c0,.09-.01.19,0,.28-.23-.06-.1.3-.21.49l-.34-.07h0Z"/>
    <path class="k" d="M49.95,16.43c.32.02.48.16.62.42l.07.21v.14l-.56-.42c.17-.24-.03-.18-.14-.35Z"/>
    <path class="m" d="M51.62,10.77l-.03.21c-.37-.03-.45.17-.52.49v-.56c.06-.05.08-.05.14-.07.01,0,.26-.07.28-.07.04,0,.1,0,.14,0h0Z"/>
    <path class="k" d="M41.83,16.15c.11,0,1.25-.06,1.25.03l-1.25.03v-.07Z"/>
    <path class="k" d="M33.43,18.45l-.07.49s-.14-.25-.07-.44c.03-.08.14-.04.14-.04Z"/>
    <path class="k" d="M36,21.6c.1.05.43.06.49.21l-.49-.21Z"/>
    <path class="k" d="M50.58,16.85l.07.21c.16-.13-.05-.17-.07-.21Z"/>
    <path class="o" d="M51.48,10.77s-.26.06-.28.07l.28-.07Z"/>
    <path class="m" d="M41.76,10.21s.06.19.14,0c-.05,0-.09,0-.14,0Z"/>
    <path class="k" d="M38.84,21.18v-.07l.14-.11c-.06.04-.09.13-.14.18Z"/>
    <path class="m" d="M45.02,10.63c.61.03,1.14.32,1.67.6-.72,1.39-.84,3.02-.84,4.57l-9.23.07.21-4.49,1.42-.61c-.38.92-.52,1.88-.24,2.86-.08-.09-.15-.24-.28-.21l.97,1.57.14-.18c1.1.94,3.03.99,4.3.42l.16.27c1.92-.74,2.54-3.08,1.72-4.88h0Z"/>
    <path class="d" d="M45.09,22.92c-.85,1.83-1.78,2.85-3.92,2.87-2.21.02-2.56-1.08-3.51-2.76,2.55.53,4.89.4,7.43-.11h0ZM43.98,23.55c-1.75.3-3.53.42-5.28.07.59,1.89,2.53,2.05,4.1,1.26.71-.36.74-.4,1.11-1.12.02-.03.16-.09.14-.21h-.07Z"/>
    <path class="d" d="M43.7,18.59s.05.13.11.2c.07.07.09.09.17.14.06.04.16.04.24.03.08,0,.13-.05.2-.09.09-.06.12-.12.15-.22.03-.12.03-.21-.03-.32-.06-.11-.13-.16-.25-.19-.09-.03-.25,0-.25,0l.25-.25.34-.06c1.74.13,1.36,3.73-.36,3.16-.78-.26-.88-1.76-.57-2.39Z"/>
    <path class="o" d="M39.33,13.01v-1.19h1.18v-1.19h1.32v1.19h1.11c.11.46.1.73,0,1.19-.37-.06-.75.05-1.11.07-.42.03-.9.06-1.32,0l-.07-.07c-.28,0-.56,0-.83,0-.09,0-.19,0-.28,0Z"/>
    <path class="p" d="M41.83,13.08v1.05c-.23,0-.46-.01-.69,0-.21,0-.42,0-.62,0v-1.05c.42.06.9.03,1.32,0h0Z"/>
    <path class="c" d="M42.94,13.01c-.17.81-.91,1.47-1.81,1.12.23,0,.46,0,.7,0v-1.05c.36-.02.74-.13,1.11-.07h0Z"/>
    <path class="c" d="M40.44,13.01s.04.07.07.07v1.05l-1.11-.98.21-.14c.28,0,.56,0,.83,0Z"/>
    <path class="d" d="M51.48,11.75l-.07-.21c.23-.03.23,0,.21.21-.04,0-.1,0-.14,0Z"/>
    <path class="m" d="M32.32,11.05l.62-.21v.21c-.43-.05-.47.1-.66.42l.04-.42h0Z"/>
    <path class="d" d="M33.01,11.75c.07-.32-.28-.31-.21,0,.07,0,.14,0,.21,0Z"/>
    <path class="c" d="M43.98,23.55h.07c.02.12-.12.17-.14.21-.34.14-1,.73-1.11,1.12-1.57.79-3.51.64-4.1-1.26,1.75.35,3.53.23,5.28-.07Z"/>
    <path class="m" d="M42.8,24.88c.71-.36.74-.4,1.11-1.12-.34.14-1,.73-1.11,1.12Z"/>
    <path class="m" d="M40.44,13.01s.04.07.07.07l-.07-.07Z"/>
  </g>
  <g>
    <g>
      <g>
        <path class="e" d="M54.17,64.83s-.22-.02-.28-.03c-3.76-.55-7.74-.82-11.82-.82s-8.07.28-11.81.82h-.12c-.09.02-.16.03-.23.03-.31,0-.59-.12-.83-.35-.24-.23-.38-.58-.38-.98v-2.06c0-.66.48-1.2,1.15-1.3,3.87-.58,7.98-.87,12.22-.87s8.35.29,12.22.87c.67.1,1.15.65,1.15,1.3v2.16c-.02.72-.53,1.23-1.21,1.23,0,0-.06,0-.07,0Z"/>
        <path class="i" d="M42.07,59.64c4.22,0,8.31.29,12.16.87.48.07.83.47.83.93v2.16c-.01.5-.36.85-.83.85-.02,0-.03,0-.05,0-.05,0-.2-.01-.25-.02-3.78-.55-7.77-.83-11.87-.83s-8.1.28-11.86.83c-.05,0-.1,0-.15.01-.05,0-.1.01-.14.01-.23,0-.42-.1-.57-.24-.18-.18-.26-.45-.26-.71v-2.06c0-.47.35-.86.83-.93,3.86-.57,7.95-.87,12.17-.87M42.07,58.89c-4.25,0-8.39.29-12.28.87-.85.13-1.47.83-1.47,1.68v2.06c0,.49.18.95.49,1.25.31.29.69.45,1.09.45.09,0,.17,0,.27-.02,0,0,.02,0,.03,0,.03,0,.07,0,.11,0,3.72-.54,7.68-.82,11.76-.82s8.03.28,11.77.82c.07.01.28.03.35.03,0,0,0,0,0,0,.92,0,1.6-.68,1.63-1.58v-2.18c0-.84-.62-1.55-1.47-1.68-3.89-.58-8.02-.87-12.28-.87h0Z"/>
      </g>
      <path class="e" d="M21.35,62.03c-.21,0-.42-.02-.61-.06-.52-.1-.98-.34-1.36-.7-.35-.34-.61-.79-.78-1.35-.15-.5-.23-1.09-.23-1.78v-4.35c0-.91.14-1.72.41-2.41.28-.72.68-1.32,1.19-1.79.53-.49,1.17-.83,1.89-1,.34-.08.67-.13.98-.13.48,0,.91.1,1.29.29.48.24.86.63,1.13,1.15.29-.71.7-1.29,1.22-1.74.56-.48,1.22-.78,1.97-.9.21-.03.43-.05.63-.05.35,0,.69.05,1,.15.52.16.96.45,1.33.85.2.22.37.48.51.76,0-.02.02-.05.03-.07.29-.7.72-1.27,1.27-1.69.58-.44,1.26-.7,2.03-.76.11,0,.22-.01.33-.01.46,0,.9.08,1.3.24.5.2.93.51,1.29.92.06.08.13.16.19.24v-1.46l.92-.03c.76-.02,1.15-.03,1.91-.04h.96s0,9.59,0,9.59c.31,0,1.97.02,1.97.02v3.53h-.96c-.5-.02-.93-.02-1.32-.02-.76,0-1.41.01-2.49.05l-.98.03v-1.37c-.25.38-.56.7-.92.96-.58.42-1.25.66-2.02.72-.12,0-.24.01-.36.01-.45,0-.87-.07-1.26-.21-.51-.18-.94-.48-1.29-.88-.19-.22-.36-.47-.5-.75,0,.02-.01.04-.02.05-.29.69-.71,1.27-1.25,1.71-.56.45-1.21.74-1.96.86-.23.04-.46.06-.68.06-.33,0-.65-.04-.94-.13-.52-.15-.97-.42-1.33-.81-.16-.17-.3-.36-.42-.58-.24.67-.6,1.23-1.06,1.69-.53.52-1.23.89-2.07,1.09-.31.08-.62.11-.91.11ZM22.11,57.3c0-.17,0-.35,0-.55v-.15s0,.7,0,.7ZM22.11,56.06l.72-.17c.73-.17,1.09-.25,1.83-.4l.18-.04v-1.67c-.56.12-.91.2-1.54.34l-1.18.27s0-1.32,0-1.41v3.07Z"/>
      <g>
        <path class="e" d="M62.82,62.03c-.33,0-.69-.05-1.07-.14-.5-.12-.98-.33-1.41-.62-.43-.29-.8-.66-1.11-1.11-.23-.33-.42-.7-.56-1.11-.31.57-.75,1-1.3,1.27-.43.22-.92.33-1.45.33-.21,0-.43-.02-.66-.05-.56-.09-1.08-.27-1.54-.55-.46-.28-.85-.64-1.17-1.08-.26-.36-.47-.78-.63-1.24-.35.68-.83,1.19-1.45,1.51-.55.29-1.19.43-1.91.43-.14,0-.27,0-.42-.02-.88-.06-1.32-.09-2.21-.13l-.9-.04v-13.13l1,.05c.91.04,1.36.07,2.26.13.71.05,1.35.23,1.89.53.54.3,1,.71,1.35,1.24.18.27.34.56.47.88.02-.04.03-.07.05-.11.32-.68.79-1.19,1.39-1.51.45-.24.96-.36,1.5-.36.2,0,.42.02.63.05.56.09,1.07.28,1.54.58.45.29.84.66,1.16,1.12.22.32.4.67.55,1.06.33-.6.79-1.04,1.37-1.29.36-.16.76-.23,1.18-.23.3,0,.61.04.93.12.81.2,1.49.57,2.02,1.1.5.51.88,1.17,1.12,1.96.22.73.33,1.6.33,2.58v1.18l-1.23-.34c-.7-.2-1.06-.29-1.76-.47l-.69-.18s0-.83,0-.92v2.56l1.21.31c.73.19,1.09.28,1.81.48l.67.19v.65c0,1-.11,1.79-.34,2.44-.28.76-.73,1.31-1.36,1.62-.37.18-.79.27-1.25.27ZM62.09,57.75c0-.16,0-.33,0-.52v-.13s0,.64,0,.64Z"/>
        <g>
          <path class="i" d="M35.5,49.58s-.02-.02-.1-.02c0,0,0,0-.02,0-.07,0-.12.03-.17.07-.08.06-.14.14-.18.25-.05.12-.08.26-.08.42v5.82c0,.16.02.3.07.4.03.07.08.13.13.16.02.01.04.02.09.02h.03c.1,0,.14-.04.17-.06.07-.06.13-.13.17-.23.05-.12.07-.26.07-.43v-5.82c0-.16-.02-.3-.07-.41-.03-.08-.07-.13-.12-.17Z"/>
          <path class="i" d="M28.78,50.35s-.04,0-.06,0c-.07.01-.14.04-.19.09-.08.08-.15.17-.19.28-.05.13-.08.28-.08.44v5.82c0,.16.02.29.07.38.04.08.08.11.1.12,0,0,.01,0,.04,0h.05c.08-.02.15-.05.2-.1.08-.07.14-.16.18-.27.05-.13.07-.28.07-.45v-5.82c0-.16-.02-.29-.07-.39-.04-.09-.09-.12-.12-.13Z"/>
          <path class="i" d="M23.22,53.76l-.72.17v-.65c0-.51-.02-.92-.06-1.23-.04-.27-.1-.37-.1-.39-.02,0-.04,0-.08.01-.09.02-.16.07-.23.14-.09.1-.16.22-.2.37-.05.18-.08.38-.08.61v5.4c0,.34.05.5.08.56.03.06.05.09.05.09h.06c.19-.05.26-.13.3-.19.06-.09.15-.28.2-.63.05-.33.07-.76.06-1.27v-.39s.43-.1.43-.1c.73-.17,1.09-.25,1.82-.4l.48-.1v-2.44l-.21.04c-.72.15-1.08.23-1.79.39Z"/>
          <path class="i" d="M65.81,51.55c-.26-.85-.66-1.56-1.21-2.11-.58-.58-1.32-.99-2.19-1.2-.35-.09-.69-.13-1.02-.13-.47,0-.92.09-1.33.26-.45.19-.84.48-1.16.86-.09-.18-.19-.34-.3-.5-.34-.5-.77-.91-1.26-1.22-.5-.32-1.07-.53-1.68-.63-.23-.04-.47-.06-.69-.06-.61,0-1.17.14-1.68.4-.5.27-.92.65-1.24,1.13-.06-.09-.11-.19-.17-.27-.39-.57-.89-1.02-1.48-1.35-.59-.33-1.28-.52-2.05-.58-.91-.07-1.36-.09-2.27-.13l-.61-.03-.78-.04v9.39l-2.16-.03v-9.4h-.76s-.58.01-.58.01c-.77,0-1.15.02-1.92.04l-.55.02-.73.02v.87c-.29-.24-.61-.42-.96-.56-.45-.17-.93-.26-1.43-.26-.12,0-.24,0-.36.01-.84.07-1.59.35-2.23.84-.45.34-.82.77-1.11,1.28-.06-.08-.12-.16-.19-.23-.41-.46-.91-.78-1.49-.96-.35-.11-.73-.17-1.11-.17-.22,0-.46.02-.69.06-.82.13-1.55.46-2.16.99-.41.35-.76.78-1.04,1.28-.25-.3-.56-.55-.91-.73-.43-.22-.93-.34-1.46-.34-.34,0-.7.05-1.07.14-.78.19-1.47.56-2.05,1.09-.55.51-.98,1.16-1.28,1.93-.29.74-.43,1.6-.43,2.55v4.35c0,.72.08,1.36.25,1.89.19.62.49,1.12.88,1.51.43.42.95.69,1.55.8.22.04.45.06.68.06.32,0,.66-.04,1-.13.91-.22,1.67-.62,2.25-1.19.35-.34.64-.74.88-1.2.02.03.05.05.07.08.41.44.91.75,1.5.92.33.09.68.14,1.05.14.24,0,.48-.02.74-.06.81-.13,1.53-.45,2.14-.94.43-.35.83.11,1.11-.38.06.07.24-.19.3-.12.94,1.04.73.24,1.29.43.43.16.9.23,1.39.23.13,0,.25,0,.39-.02.83-.07,1.58-.33,2.21-.79.11-.08.22-.17.32-.26v.76l.77-.03.6-.02c1.07-.03,1.72-.05,2.48-.05.39,0,.81,0,1.32,0h.58s.76.02.76.02l.19-.44v.44l.72.03.55.03c.88.04,1.32.07,2.2.13.15.01.3.02.45.02.78,0,1.48-.16,2.08-.47.47-.25.98.43,1.31,0,.11.23.01,0,.16.2.35.48.9.3,1.41.6.5.3,1.06.5,1.67.6.24.04.49.06.72.06.58,0,1.13-.12,1.61-.37.41-.2.76-.48,1.06-.83.1.19.21.38.33.55.33.48.74.89,1.21,1.2.47.32.98.54,1.53.68.41.1.8.15,1.16.15.52,0,1-.1,1.41-.31.72-.36,1.24-.97,1.55-1.83.25-.69.37-1.53.37-2.57v-.93l-.55-.15-.4-.11c-.72-.2-1.09-.3-1.81-.49l-.75-.19-.18-.05v-.87l.23.06c.7.18,1.05.27,1.75.47l.75.21.95.27v-1.68c0-1.02-.12-1.92-.35-2.69ZM43.74,56.78v2.29h-.58c-.51-.01-.93-.02-1.33-.02-.76,0-1.42.01-2.5.05l-.6.02v-3.42c-.05.59-.15,1.14-.35,1.6-.27.62-.66,1.13-1.17,1.49-.52.38-1.13.6-1.82.65-.11,0-.22.01-.33.01-.4,0-.79-.06-1.13-.19-.45-.16-.83-.42-1.14-.78-.3-.34-.52-.76-.67-1.25-.07-.23-.12-.47-.15-.73-.06.5-.15.98-.32,1.39-.26.64-.65,1.16-1.14,1.56-.5.41-1.1.67-1.78.78-.21.03-.42.05-.62.05-.3,0-.58-.04-.84-.11-.46-.13-.85-.37-1.16-.71-.3-.32-.52-.73-.67-1.21-.04-.13-.06-.29-.09-.44-.05.34-.12.67-.21.97-.22.72-.58,1.31-1.05,1.78-.48.47-1.12.81-1.9,1-.28.07-.56.1-.82.1-.18,0-.37-.02-.54-.05-.45-.09-.85-.29-1.17-.6-.3-.29-.53-.69-.69-1.19-.14-.46-.22-1.02-.22-1.67v-4.35c0-.86.13-1.63.38-2.28.26-.67.63-1.22,1.09-1.65.48-.45,1.06-.75,1.72-.91.31-.08.62-.12.89-.12.42,0,.79.09,1.12.25.53.27.93.76,1.17,1.44.07.21.13.44.18.68.06-.42.16-.81.3-1.17.26-.65.64-1.19,1.12-1.6.51-.43,1.11-.71,1.79-.82.19-.03.39-.05.57-.05.31,0,.61.04.89.13.45.14.84.39,1.16.75.29.33.52.74.68,1.23.07.23.13.48.16.74.06-.5.15-.98.33-1.39.27-.64.66-1.16,1.15-1.54.52-.4,1.14-.63,1.83-.68.1,0,.2-.01.3-.01.41,0,.8.07,1.16.21.44.17.82.45,1.14.82.29.35.52.77.67,1.27.09.28.14.6.18.93v-3.29l.55-.02c.76-.02,1.14-.03,1.9-.04h.58s0,.5,0,.5v9.09c.12,0,.23,0,.34,0,.32,0,.64,0,1.07,0h.57v.5ZM65.4,54.92l-.75-.21c-.71-.2-1.06-.29-1.77-.47l-.41-.11v-.37c0-.51-.02-.93-.06-1.27-.04-.35-.13-.53-.2-.63-.07-.1-.16-.15-.29-.19-.03,0-.05,0-.04-.02-.03.02-.06.07-.08.14-.05.14-.07.32-.07.55v5.4c0,.27.03.49.09.65.05.14.12.25.2.32.07.06.14.1.22.12.03,0,.06.01.08.02.03-.05.08-.17.11-.38.05-.3.06-.72.06-1.24v-.68s.74.19.74.19c.72.18,1.08.28,1.8.48l.4.11v.36c0,.95-.11,1.71-.32,2.31-.24.67-.64,1.14-1.18,1.41-.31.15-.68.23-1.08.23-.3,0-.63-.04-.98-.13-.46-.11-.89-.3-1.29-.57-.39-.26-.73-.6-1.01-1.01-.28-.4-.49-.87-.63-1.4-.07-.27-.13-.57-.16-.88-.06.38-.16.72-.31,1.02-.28.59-.7,1.03-1.23,1.29-.38.19-.81.29-1.28.29-.19,0-.4-.02-.6-.05-.51-.08-.98-.25-1.4-.5-.41-.25-.77-.58-1.06-.98-.28-.39-.5-.84-.64-1.35-.11-.38-.16-.82-.19-1.28-.07.46-.18.87-.34,1.23-.31.72-.78,1.24-1.38,1.56-.49.26-1.08.39-1.74.39-.13,0-.26,0-.39-.01-.89-.06-1.33-.09-2.22-.13l-.55-.03v-12.37l.61.03c.9.04,1.35.07,2.25.13.66.05,1.24.21,1.74.48.49.27.9.65,1.22,1.12.3.45.53.98.68,1.6.06.24.09.5.13.76.04-.62.15-1.18.36-1.64.28-.6.69-1.05,1.22-1.34.4-.21.84-.32,1.33-.32h0c.18,0,.38.02.57.05.51.08.98.26,1.39.52.41.26.76.6,1.05,1.02.28.4.49.86.64,1.38.07.26.13.54.16.84.07-.4.17-.76.32-1.07.29-.6.71-1.02,1.25-1.25.31-.13.66-.2,1.03-.2.27,0,.55.04.84.11.74.18,1.36.52,1.84,1,.46.46.81,1.07,1.03,1.8.21.69.32,1.53.32,2.47v.69Z"/>
          <path class="i" d="M48.77,49.8c-.07-.06-.17-.1-.31-.12v6.84h.05s.06,0,.09,0c.07,0,.16,0,.21-.05.09-.08.17-.22.22-.41.07-.25.1-.55.1-.92v-3.92c0-.4-.04-.74-.11-1-.06-.2-.14-.36-.24-.45Z"/>
          <path class="i" d="M55.52,50.44c-.06-.05-.12-.08-.2-.09h-.08s-.07.04-.11.14c-.05.1-.07.23-.07.38v5.82c0,.17.03.32.08.44.04.11.11.2.19.27.06.05.12.08.2.09.02,0,.04,0,.06,0h.03s.06-.03.09-.12c.03-.07.06-.19.06-.39v-5.82c0-.17-.03-.32-.07-.45-.04-.11-.1-.2-.18-.28Z"/>
        </g>
      </g>
    </g>
    <g>
      <path class="l" d="M54.19,64.45s-.2-.01-.25-.02c-3.78-.55-7.77-.83-11.87-.83s-8.1.28-11.86.83c-.05,0-.1,0-.15.01-.29.05-.53-.05-.71-.23-.18-.18-.26-.45-.26-.71v-2.06c0-.47.35-.86.83-.93,3.86-.57,7.95-.87,12.17-.87s8.31.29,12.16.87c.48.07.83.47.83.93v2.16c-.02.51-.38.87-.88.85Z"/>
      <path class="e" d="M54.23,64.7s-.04,0-.05,0c-.06,0-.22-.02-.27-.02-3.76-.55-7.75-.83-11.84-.83s-8.08.28-11.83.82c-.03,0-.07,0-.1,0-.38.06-.7-.04-.97-.29-.21-.21-.34-.53-.34-.89v-2.06c0-.59.44-1.09,1.04-1.18,3.87-.58,7.97-.87,12.2-.87s8.34.29,12.2.87c.6.09,1.04.59,1.04,1.18v2.16c0,.33-.14.62-.35.82-.19.18-.45.28-.73.28ZM42.06,63.35c4.12,0,8.12.28,11.91.83.04,0,.17.02.21.02h.01c.17.02.31-.04.42-.14.12-.11.19-.27.19-.46v-2.15c0-.34-.26-.63-.62-.69-3.84-.57-7.92-.86-12.12-.86s-8.29.29-12.13.86c-.36.05-.62.34-.62.69v2.06c0,.22.07.42.18.52.15.14.31.19.5.17.04,0,.07,0,.11,0,3.81-.55,7.81-.83,11.94-.83Z"/>
    </g>
    <path class="j" d="M21.98,61.06c-.39.1-.75.11-1.09.05-.33-.06-.62-.21-.87-.45-.24-.24-.43-.56-.56-.99-.13-.42-.2-.93-.2-1.54,0-1.74,0-2.61,0-4.35,0-.81.12-1.52.35-2.12.23-.6.56-1.09.97-1.47.41-.38.9-.64,1.46-.77.64-.15,1.16-.12,1.57.09.41.21.72.6.92,1.16.2.56.3,1.29.3,2.2-.72.15-1.09.23-1.81.39,0-.53-.02-.96-.07-1.29-.05-.33-.14-.57-.29-.7-.15-.13-.35-.17-.63-.1-.21.05-.38.15-.52.31-.14.16-.24.34-.31.56-.06.22-.1.46-.1.73v5.4c0,.32.04.57.12.74.08.17.19.29.33.35.14.06.3.07.48.03.29-.07.5-.2.64-.4.14-.2.23-.47.28-.83.05-.35.07-.8.06-1.34.72-.17,1.08-.24,1.81-.39,0,.89-.1,1.66-.3,2.31-.2.65-.51,1.17-.92,1.57-.42.4-.96.68-1.63.85Z"/>
    <path class="i" d="M21.31,61.27c-.15,0-.3-.01-.45-.04-.36-.07-.68-.23-.94-.49-.26-.25-.46-.6-.59-1.04-.13-.43-.2-.96-.2-1.57v-4.35c0-.82.12-1.55.36-2.16.24-.62.58-1.12,1-1.51.43-.4.94-.67,1.53-.81.67-.16,1.24-.13,1.68.1.44.22.77.64.98,1.23.21.57.31,1.32.31,2.24v.1l-.11.02c-.72.15-1.07.23-1.8.39l-.18.04v-.16c0-.52-.02-.95-.07-1.28-.04-.3-.13-.51-.25-.63-.11-.1-.27-.12-.48-.07-.18.04-.33.13-.45.27-.13.14-.22.31-.28.51-.06.21-.09.44-.09.7v5.4c0,.3.04.54.11.7.06.14.15.24.26.29.11.05.23.05.38.02.26-.06.44-.18.56-.35.13-.18.21-.44.26-.78.05-.35.07-.79.06-1.32v-.1s.11-.03.11-.03c.73-.17,1.09-.25,1.81-.4l.18-.04v.16c0,.9-.1,1.69-.31,2.34-.21.66-.53,1.21-.96,1.62-.43.42-1,.71-1.7.88h0c-.24.06-.48.09-.71.09ZM22.79,49.45c-.21,0-.45.03-.7.09-.53.13-1,.38-1.4.74-.39.36-.71.84-.94,1.42-.23.58-.34,1.28-.34,2.08v4.35c0,.59.06,1.1.19,1.5.12.4.3.71.53.93.22.21.49.35.79.41.31.06.65.04,1.02-.04h0c.65-.16,1.17-.43,1.56-.81.4-.39.7-.9.89-1.52.18-.6.28-1.31.3-2.12-.57.12-.92.19-1.52.33,0,.5-.02.92-.06,1.26-.05.37-.15.67-.3.88-.15.23-.4.38-.73.46-.22.05-.42.04-.59-.04-.17-.08-.31-.22-.39-.42-.08-.19-.13-.45-.13-.79v-5.4c0-.28.03-.54.1-.76.07-.24.18-.44.33-.61.16-.18.36-.29.6-.35.41-.1.64.02.77.13.17.15.28.41.33.77.04.3.06.69.07,1.15.58-.13.93-.21,1.52-.33,0-.84-.11-1.54-.29-2.06-.19-.53-.48-.9-.85-1.09-.22-.11-.47-.17-.76-.17Z"/>
    <path class="j" d="M28.59,59.73c-.43.07-.82.05-1.17-.05-.35-.1-.65-.28-.9-.55-.25-.27-.44-.61-.56-1.02-.13-.42-.19-.91-.19-1.48,0-1.77,0-2.65,0-4.42,0-.76.12-1.43.35-2.01.23-.58.56-1.05.99-1.41.42-.36.92-.59,1.49-.68.42-.07.81-.05,1.16.06.35.11.65.31.9.58s.44.63.58,1.06c.13.42.2.92.2,1.49,0,1.77,0,2.65,0,4.42,0,.76-.12,1.42-.35,1.99-.24.57-.57,1.02-.99,1.37-.43.35-.92.56-1.5.66ZM28.59,57.99c.2-.03.37-.11.51-.24.14-.12.24-.28.31-.45.07-.18.1-.38.1-.61,0-2.33,0-3.49,0-5.82,0-.22-.03-.41-.1-.57-.07-.16-.17-.28-.31-.37-.14-.08-.31-.11-.51-.08-.19.03-.36.11-.5.24-.14.13-.25.28-.32.47-.07.18-.11.39-.11.6,0,2.33,0,3.49,0,5.82,0,.23.04.42.11.57.07.15.18.27.32.35.14.08.31.1.5.07Z"/>
    <path class="i" d="M28.08,59.9c-.25,0-.49-.03-.71-.09-.38-.11-.7-.31-.96-.59-.26-.28-.46-.64-.59-1.07-.13-.42-.2-.93-.2-1.52v-4.42c0-.77.12-1.46.36-2.05.24-.6.58-1.09,1.02-1.46.44-.38.97-.62,1.57-.72.45-.07.86-.05,1.24.07.38.12.7.33.97.62.26.29.46.66.6,1.1.14.43.21.95.21,1.53v4.41c0,.77-.12,1.45-.36,2.03-.24.58-.59,1.06-1.03,1.42-.44.36-.97.59-1.57.69h0c-.19.03-.36.04-.54.04ZM29.05,48.2c-.14,0-.29.01-.44.04-.54.09-1.02.3-1.42.65-.4.34-.72.8-.95,1.37-.23.56-.34,1.23-.34,1.97v4.42c0,.56.06,1.05.19,1.45.12.4.3.73.54.98.23.25.5.42.83.51.32.09.7.11,1.1.04.54-.09,1.02-.3,1.42-.62.41-.33.73-.78.96-1.32.23-.55.35-1.21.35-1.95v-4.41c0-.56-.07-1.05-.2-1.46-.13-.41-.31-.75-.55-1.01-.23-.26-.51-.44-.84-.54-.2-.06-.42-.09-.65-.09ZM28.43,58.12c-.16,0-.3-.04-.43-.11-.17-.09-.29-.23-.38-.41-.08-.17-.12-.37-.12-.62v-5.82c0-.23.04-.45.12-.65.08-.2.2-.37.36-.51.16-.15.36-.24.58-.27.24-.04.45,0,.62.1.16.1.29.24.37.43.07.18.11.38.11.61v5.82c0,.24-.04.46-.11.65-.08.19-.19.36-.34.5-.16.14-.36.24-.59.27-.06,0-.12.01-.18.01ZM28.75,49.97s-.09,0-.14.01c-.16.03-.3.09-.43.2-.13.12-.22.25-.29.42-.07.17-.1.36-.1.56v5.82c0,.21.03.39.1.53.06.13.15.23.27.29.11.06.24.09.4.06h0c.17-.03.32-.09.44-.2.12-.11.22-.25.28-.41.06-.16.1-.36.1-.57v-5.82c0-.2-.03-.38-.09-.53-.06-.13-.15-.24-.26-.31-.08-.04-.16-.07-.27-.07Z"/>
    <path class="j" d="M35.32,58.93c-.44.03-.83-.01-1.19-.14-.35-.13-.66-.33-.91-.62-.25-.29-.44-.64-.57-1.07-.13-.43-.19-.93-.19-1.5,0-1.77,0-2.65,0-4.42,0-.76.12-1.42.36-1.98.24-.56.57-1.01,1-1.33.43-.33.93-.52,1.51-.56.43-.03.82.02,1.17.16.35.14.66.36.91.66.25.3.45.67.58,1.1.14.43.2.94.2,1.51,0,1.77,0,2.65,0,4.42,0,.76-.12,1.41-.36,1.96-.24.55-.57.98-1,1.29-.43.31-.93.49-1.51.54ZM35.32,57.18c.2-.02.38-.08.52-.2.14-.11.24-.26.31-.43.07-.17.1-.37.1-.6,0-2.33,0-3.49,0-5.82,0-.22-.04-.41-.1-.58-.07-.17-.18-.3-.31-.39-.14-.09-.31-.13-.52-.12-.2.02-.37.08-.51.2-.14.12-.25.26-.33.44-.07.18-.11.38-.11.59,0,2.33,0,3.49,0,5.82,0,.23.04.42.11.58.07.16.18.29.33.38.14.09.31.13.51.11Z"/>
    <path class="i" d="M35.05,59.06c-.35,0-.67-.05-.97-.16-.38-.14-.7-.36-.97-.66-.26-.3-.46-.67-.6-1.11-.13-.43-.2-.95-.2-1.53v-4.42c0-.77.12-1.45.36-2.02.24-.58.59-1.05,1.04-1.39.45-.35.99-.54,1.59-.59.45-.04.87.02,1.25.17.37.15.7.38.97.7.26.31.46.69.6,1.14.14.44.21.96.21,1.54v4.41c0,.77-.12,1.45-.36,2-.24.56-.6,1.01-1.04,1.34-.45.33-.98.52-1.59.56h0c-.1,0-.19.01-.29.01ZM35.57,47.42c-.08,0-.15,0-.23,0-.54.04-1.02.22-1.43.53-.41.31-.73.74-.96,1.28-.23.54-.35,1.2-.35,1.94v4.42c0,.56.06,1.05.19,1.47.12.41.31.75.55,1.03.23.27.52.46.85.58.33.12.71.16,1.12.13h0c.55-.04,1.03-.21,1.43-.51.41-.3.73-.71.96-1.24.23-.53.35-1.17.35-1.92v-4.41c0-.56-.07-1.06-.2-1.48-.13-.42-.32-.78-.56-1.06-.24-.28-.52-.49-.85-.61-.27-.1-.56-.16-.87-.16ZM35.24,57.31c-.19,0-.36-.05-.51-.14-.17-.1-.29-.25-.38-.43-.08-.18-.12-.38-.12-.63v-5.82c0-.23.04-.45.12-.64.08-.2.21-.36.36-.49.17-.14.37-.21.59-.23.24-.02.45.03.62.14.16.11.28.26.36.45.07.18.11.39.11.62v5.82c0,.24-.04.46-.11.64-.08.19-.2.35-.35.48-.17.13-.37.21-.6.23h0s-.06,0-.1,0ZM35.41,49.18s-.05,0-.07,0c-.16.01-.3.07-.42.17-.13.1-.22.23-.29.39-.07.16-.1.35-.1.55v5.82c0,.21.03.39.1.54.06.14.16.25.28.32.12.07.26.1.41.09h0c.17-.01.31-.07.43-.16.12-.1.22-.23.28-.38.06-.16.1-.35.1-.56v-5.82c0-.2-.03-.38-.1-.54-.06-.14-.15-.25-.27-.33-.09-.06-.21-.09-.34-.09Z"/>
    <path class="j" d="M39.3,58.58c0-4.55,0-6.82,0-11.37.76-.02,1.13-.03,1.89-.04,0,3.84,0,5.76,0,9.59.79,0,1.19,0,1.98,0v1.78c-1.55-.02-2.32-.01-3.87.04Z"/>
    <path class="i" d="M39.15,58.71v-11.62h.14c.75-.03,1.12-.04,1.9-.05h.15s0,9.59,0,9.59c.72,0,1.1,0,1.83,0h.14v2.03h-.15c-1.55-.02-2.31-.01-3.86.04h-.15ZM39.44,47.33v11.12c1.41-.04,2.17-.05,3.58-.04v-1.53c-.68,0-1.07,0-1.83,0h-.15s0-9.59,0-9.59c-.63,0-.99.01-1.6.03Z"/>
    <path class="j" d="M46.01,58.63c0-4.55,0-6.82,0-11.37.9.04,1.34.07,2.24.13.57.04,1.06.18,1.48.41.42.23.76.55,1.04.95.27.4.48.88.61,1.45.13.56.2,1.19.2,1.89v2.6c0,1.03-.13,1.85-.4,2.47-.27.62-.65,1.05-1.14,1.31s-1.09.35-1.79.3c-.89-.06-1.34-.09-2.24-.13ZM47.9,56.97h0c.37.02.2.01.57.04.33.02.57-.04.75-.18.17-.15.3-.36.38-.65.08-.28.12-.63.12-1.03v-3.92c0-.45-.04-.82-.12-1.12-.08-.3-.22-.53-.4-.68-.18-.16-.42-.25-.72-.27-.36-.03-.21-.02-.57-.04h0c0,3.45,0,4.4,0,7.85Z"/>
    <path class="i" d="M48.58,58.9c-.11,0-.23,0-.35-.01-.89-.07-1.33-.09-2.23-.13h-.14v-11.63h.15c.91.05,1.35.08,2.24.14.59.04,1.11.19,1.55.43.44.24.8.57,1.09.99.28.41.49.91.63,1.48.14.57.21,1.21.21,1.91v2.6c0,1.04-.14,1.88-.41,2.51-.28.64-.69,1.1-1.21,1.37-.43.22-.94.33-1.52.33ZM46.15,58.51c.82.04,1.26.06,2.11.13.67.05,1.24-.05,1.7-.29.46-.24.83-.66,1.08-1.24.26-.6.39-1.42.39-2.42v-2.6c0-.68-.07-1.31-.2-1.86-.13-.55-.33-1.02-.6-1.41-.26-.39-.59-.69-.99-.91-.4-.22-.88-.35-1.42-.39-.84-.06-1.28-.09-2.08-.12v11.12ZM48.6,57.14s-.1,0-.15,0l-.23-.02c-.09,0-.1,0-.35-.02h-.13v-8.11h.15c.25.03.26.03.35.03l.22.02c.33.02.6.13.81.3.2.17.35.42.44.74.09.31.13.69.13,1.15v3.91c0,.41-.04.77-.12,1.06-.08.31-.23.54-.42.71-.17.15-.41.22-.71.22ZM48.04,56.86c.13,0,.14.01.22.02l.22.02c.28.02.49-.03.63-.15.15-.13.27-.33.34-.59.08-.27.11-.61.11-1.01v-3.91c0-.44-.04-.8-.12-1.09-.08-.28-.2-.48-.36-.62-.16-.13-.37-.21-.63-.23l-.22-.02c-.07,0-.09,0-.19-.01v7.6Z"/>
    <path class="j" d="M55.45,59.72c-.43-.07-.83-.21-1.18-.42-.35-.21-.65-.49-.9-.84-.25-.34-.44-.75-.57-1.21-.13-.46-.19-.97-.19-1.54,0-1.77,0-2.65,0-4.42,0-.76.12-1.39.35-1.9.24-.5.57-.87.99-1.1.43-.23.92-.3,1.5-.2.42.07.81.21,1.16.43.35.22.65.51.9.87s.44.77.57,1.24c.13.47.2.99.2,1.56,0,1.77,0,2.65,0,4.42,0,.76-.12,1.38-.35,1.88-.23.49-.56.84-.99,1.05-.42.21-.92.27-1.49.18ZM55.45,57.97c.2.03.37,0,.51-.07.14-.08.24-.2.31-.35.07-.16.1-.35.1-.58,0-2.33,0-3.49,0-5.82,0-.22-.03-.42-.1-.6-.07-.18-.17-.34-.31-.46-.14-.13-.31-.21-.51-.24-.19-.03-.36,0-.5.08-.14.08-.25.2-.33.36-.07.16-.11.35-.11.57,0,2.33,0,3.49,0,5.82,0,.23.04.43.11.61.07.18.18.33.33.45s.31.2.5.23Z"/>
    <path class="i" d="M55.95,59.88c-.17,0-.34-.01-.52-.04h0c-.45-.07-.87-.22-1.23-.44s-.68-.51-.94-.87c-.26-.36-.46-.77-.59-1.24-.13-.46-.2-.99-.2-1.57v-4.42c0-.77.12-1.43.36-1.94.25-.53.6-.92,1.05-1.16.46-.24.99-.32,1.6-.22.44.07.85.22,1.22.46.36.23.68.53.93.91.26.37.45.8.59,1.27.14.47.2,1.01.2,1.59v4.42c0,.77-.12,1.42-.36,1.92-.24.51-.6.89-1.05,1.11-.32.16-.67.24-1.07.24ZM54.99,48.18c-.35,0-.67.08-.96.22-.4.21-.71.56-.93,1.04-.23.49-.34,1.11-.34,1.85v4.42c0,.56.06,1.07.19,1.51.13.44.31.84.55,1.17.24.33.53.6.86.8.33.2.71.34,1.12.4h0c.54.09,1.01.03,1.39-.16.39-.2.71-.53.93-.99.23-.47.34-1.09.34-1.83v-4.42c0-.56-.07-1.07-.19-1.53-.13-.45-.32-.86-.56-1.2-.24-.34-.53-.62-.86-.83-.33-.21-.7-.35-1.1-.41-.15-.02-.3-.04-.44-.04ZM55.62,58.11c-.06,0-.13,0-.19-.02h0c-.22-.03-.42-.12-.58-.27-.16-.14-.28-.31-.36-.5-.08-.19-.12-.41-.12-.65v-5.82c0-.23.04-.44.12-.62.08-.18.21-.32.38-.42.18-.1.38-.13.61-.1.23.04.43.13.59.28.15.14.27.31.34.51.07.19.11.41.11.64v5.82c0,.25-.04.45-.11.62-.08.18-.2.32-.36.41-.12.07-.27.11-.43.11ZM55.3,49.95c-.1,0-.19.02-.27.07-.12.07-.21.17-.27.31-.07.14-.1.32-.1.52v5.82c0,.21.03.41.1.57.07.16.16.3.29.41.12.11.26.17.43.2h0c.17.03.3,0,.41-.05.11-.07.2-.16.26-.29.06-.14.09-.32.09-.53v-5.82c0-.21-.03-.4-.1-.56-.06-.16-.16-.31-.28-.42-.12-.11-.26-.18-.43-.2-.04,0-.09-.01-.13-.01Z"/>
    <path class="j" d="M62.03,61.03c-.39-.09-.75-.26-1.09-.48-.34-.23-.63-.52-.88-.87-.25-.35-.44-.77-.57-1.26-.13-.48-.2-1.03-.2-1.63,0-1.74,0-2.61,0-4.35,0-.81.12-1.46.36-1.95.24-.48.56-.82.98-1,.42-.18.9-.2,1.47-.06.64.15,1.16.44,1.56.85.41.41.71.94.91,1.6.2.66.3,1.44.3,2.34-.71-.2-1.07-.3-1.79-.48,0-.53-.02-.97-.07-1.33-.05-.36-.14-.63-.29-.84-.14-.2-.35-.34-.63-.4-.21-.05-.38-.03-.52.05-.14.09-.24.22-.31.41-.06.19-.1.42-.1.69,0,2.16,0,3.24,0,5.4,0,.32.04.59.12.8.08.21.19.38.33.51.14.13.3.22.48.26.29.07.5.04.64-.09.14-.13.23-.36.28-.69.05-.33.07-.77.06-1.31.72.18,1.07.28,1.79.48,0,.89-.1,1.61-.3,2.16-.2.55-.5.92-.91,1.13-.41.2-.95.22-1.62.06Z"/>
    <path class="i" d="M62.86,61.27c-.26,0-.55-.04-.86-.11h0c-.41-.1-.79-.27-1.14-.5s-.66-.54-.91-.91c-.25-.36-.45-.8-.59-1.29-.13-.49-.2-1.05-.2-1.66v-4.35c0-.82.12-1.5.37-1.99.25-.51.6-.87,1.05-1.06.45-.19.98-.21,1.57-.07.66.16,1.21.46,1.63.89.42.42.73.98.94,1.65.2.66.3,1.46.3,2.38v.17l-.19-.05c-.71-.2-1.06-.29-1.78-.48l-.1-.03v-.09c0-.52-.02-.96-.07-1.31-.04-.34-.13-.6-.27-.79-.13-.18-.3-.29-.54-.35-.17-.04-.3-.03-.4.04-.11.07-.2.18-.25.34-.06.18-.09.4-.09.65v5.4c0,.31.04.57.11.76.07.19.17.35.3.47.13.12.26.19.42.23.35.08.46-.02.49-.05.12-.11.2-.32.24-.63.05-.32.07-.76.06-1.29v-.17s.18.05.18.05c.73.19,1.08.28,1.79.48l.1.03v.09c0,.9-.1,1.64-.3,2.2-.21.58-.54.98-.98,1.2-.25.12-.54.18-.87.18ZM62.07,60.91c.63.15,1.14.14,1.51-.05.38-.19.66-.54.85-1.06.19-.52.28-1.2.29-2.04-.59-.16-.93-.26-1.5-.4,0,.47-.02.86-.06,1.16-.05.36-.16.61-.31.76-.17.17-.44.21-.79.13-.21-.05-.39-.15-.55-.3-.16-.15-.28-.33-.36-.56-.08-.22-.12-.5-.12-.84v-5.4c0-.29.03-.52.1-.72.07-.21.19-.37.36-.48.18-.11.4-.13.65-.07.31.07.54.23.71.46.16.22.26.51.31.89.04.33.07.75.07,1.25.59.15.94.24,1.5.4-.01-.82-.11-1.54-.29-2.14-.19-.64-.49-1.16-.88-1.55-.39-.39-.89-.66-1.49-.81-.52-.13-.98-.11-1.37.05-.38.16-.69.48-.91.93-.23.47-.35,1.11-.35,1.9v4.35c0,.59.07,1.13.2,1.6.13.47.31.88.55,1.22.24.34.52.62.84.84.32.22.67.37,1.04.46h0Z"/>
    <g>
      <path d="M32.81,61.36v.7c-.15.02-.27.03-.42.05v-.7c-.19.02-.28.03-.47.06v1.68c.19-.02.28-.03.47-.06v-.72c.15-.02.27-.03.42-.05v.72c.19-.02.28-.03.47-.05v-1.68c-.19.02-.28.03-.47.05Z"/>
      <path d="M34.14,62.9c-.16-.66-.23-.98-.39-1.64.19-.02.28-.03.47-.05.09.43.13.64.21,1.07.02.12.03.19.05.31,0,0,.01,0,.02,0,.01-.13.02-.19.04-.32.09-.44.13-.67.22-1.11.19-.02.28-.02.47-.04-.16.68-.24,1.03-.39,1.71-.28.02-.42.04-.69.06Z"/>
      <path d="M36.46,62.71c.19-.01.29-.02.48-.03-.17-.66-.25-.99-.41-1.65-.27.02-.41.03-.68.05-.17.68-.25,1.02-.41,1.71.19-.02.29-.02.48-.04.02-.12.04-.22.06-.31.15-.01.27-.02.42-.03.02.09.04.19.06.3ZM36.02,62.2c.03-.16.06-.31.1-.52.02-.15.03-.22.05-.37,0,0,.01,0,.02,0,.02.14.03.22.05.36.04.2.07.36.1.51-.12,0-.21.01-.33.02Z"/>
      <path d="M38.06,62.64c-.1,0-.19,0-.28-.02-.09-.02-.16-.05-.23-.09s-.11-.09-.15-.16c-.03-.07-.05-.14-.05-.23,0-.26,0-.39,0-.64,0-.12.03-.22.09-.3.06-.08.15-.15.25-.19.11-.05.23-.07.38-.08.16,0,.3,0,.41.05.11.04.18.1.24.19.05.09.08.2.08.33-.19,0-.28.01-.47.02,0-.08,0-.14-.02-.19-.01-.05-.04-.09-.07-.11-.04-.02-.09-.03-.16-.03-.05,0-.1.01-.14.03-.04.02-.06.04-.08.08-.02.03-.02.07-.02.11,0,.32,0,.48,0,.8,0,.05,0,.09.03.11.02.03.05.05.08.06.04.01.08.02.13.02.08,0,.13-.02.17-.04.04-.03.06-.06.07-.12.01-.05.02-.12.02-.2.19,0,.28-.01.47-.02,0,.13-.03.24-.08.33-.05.09-.13.16-.24.21-.11.05-.25.08-.42.09Z"/>
      <path d="M41.36,62.55c-.15,0-.27-.02-.37-.06-.1-.04-.18-.1-.23-.18-.05-.08-.08-.18-.08-.3.18,0,.28,0,.46,0,0,.07,0,.12.02.17.01.04.04.07.07.09.03.02.08.03.13.03.03,0,.06,0,.09-.01.02,0,.05-.02.06-.04.02-.01.03-.03.04-.05,0-.02.01-.04.01-.06,0-.05-.01-.09-.03-.12-.02-.03-.05-.06-.09-.08s-.08-.05-.13-.07c-.09-.05-.13-.07-.22-.12-.08-.04-.15-.08-.21-.12-.06-.04-.11-.09-.14-.15-.03-.06-.05-.12-.05-.19s.02-.13.05-.18c.03-.05.08-.1.14-.14.06-.04.13-.07.21-.09.08-.02.17-.03.27-.03.15,0,.28.02.38.06.1.04.18.1.23.18.05.08.08.17.08.29-.18,0-.27,0-.45,0,0-.06,0-.12-.02-.16-.01-.04-.04-.07-.07-.09-.03-.02-.08-.03-.14-.03-.05,0-.08,0-.11.02-.03.01-.05.03-.06.06-.01.02-.02.05-.02.08,0,.04.01.07.03.1.02.03.05.05.09.08.04.02.08.05.13.07.07.04.11.06.18.1.09.05.17.09.24.14.06.05.11.11.15.17.03.06.05.13.05.2s-.02.14-.05.19c-.03.05-.08.1-.14.14-.06.04-.13.07-.22.09-.08.02-.17.03-.27.03Z"/>
      <path d="M43.03,62.27v-.46c.15,0,.25,0,.42,0v-.26c-.17,0-.27,0-.42,0v-.43c.25,0,.38,0,.63,0v-.26c-.44,0-.66,0-1.1-.01v1.68c.45,0,.67,0,1.12.01v-.26c-.26,0-.39,0-.65,0Z"/>
      <path d="M45.19,61.84c.07-.02.14-.05.18-.08.05-.04.09-.09.12-.15.03-.06.04-.12.04-.19,0-.1-.03-.2-.08-.27-.05-.08-.13-.14-.23-.19-.1-.05-.22-.07-.37-.08-.28,0-.42-.01-.69-.02v1.68c.19,0,.29,0,.48.01v-.65s.07,0,.12,0c.12.26.18.4.29.66.2,0,.31.01.51.02-.15-.3-.23-.46-.38-.75ZM45.04,61.46c0,.06-.02.11-.07.15-.04.04-.11.05-.2.05-.05,0-.09,0-.13,0v-.52c.05,0,.08,0,.13,0,.08,0,.14.02.19.05.05.03.07.08.07.15v.11Z"/>
      <path d="M46.32,62.62c-.16-.68-.23-1.02-.39-1.7.19,0,.29.01.48.02.09.44.13.66.22,1.1.02.13.03.19.05.32,0,0,.01,0,.02,0,.01-.13.02-.19.03-.31.09-.43.13-.65.22-1.08.19.01.28.02.47.03-.16.66-.24.99-.39,1.65-.28-.02-.42-.02-.7-.04Z"/>
      <path d="M48.99,61.38v-.26c-.45-.04-.68-.05-1.13-.08v.26c.12,0,.22.01.32.02,0,.37,0,.78,0,1.15-.1,0-.2-.01-.32-.02v.26c.45.03.68.05,1.13.08v-.26c-.12,0-.22-.02-.32-.02,0-.37,0-.78,0-1.15.1,0,.2.02.32.02Z"/>
      <path d="M50.1,62.91c-.1,0-.19-.03-.28-.06-.09-.03-.16-.07-.22-.12s-.11-.11-.14-.18c-.03-.07-.05-.15-.05-.24v-.64c0-.12.03-.22.09-.29.06-.07.14-.13.25-.16.11-.03.23-.04.38-.03.16.02.3.05.4.11.1.05.18.13.23.22.05.09.08.21.08.34-.18-.02-.28-.03-.46-.05,0-.08,0-.14-.02-.19-.01-.05-.04-.09-.07-.12-.04-.03-.09-.05-.16-.05-.05,0-.1,0-.13.01-.04.01-.06.04-.08.06-.02.03-.02.06-.02.1v.8s0,.09.03.12c.02.03.05.05.08.07.04.02.08.03.12.03.07,0,.13,0,.16-.02.04-.02.06-.06.07-.11.01-.05.02-.11.02-.19.18.02.28.03.46.05,0,.13-.03.24-.08.32-.05.08-.13.14-.24.18-.11.04-.24.05-.42.03Z"/>
      <path d="M51.79,62.8v-.46c.15.02.25.03.41.05v-.26c-.17-.02-.26-.03-.41-.05v-.43c.25.03.37.04.61.07v-.26c-.43-.05-.65-.08-1.08-.12v1.68c.44.05.66.07,1.1.13v-.26c-.25-.03-.38-.05-.63-.07Z"/>
    </g>
  </g>
</svg>