<svg width="91" height="30" viewBox="0 0 91 30" fill="none" xmlns="http://www.w3.org/2000/svg">
<g clip-path="url(#clip0_126_29)">
<path fill-rule="evenodd" clip-rule="evenodd" d="M89.1985 11.2569C88.6076 11.2569 88.1076 10.8014 88.1076 10.1772C88.1076 9.55915 88.6076 9.10287 89.1985 9.10287C89.7842 9.10287 90.2842 9.55915 90.2842 10.1772C90.2842 10.8012 89.7842 11.2569 89.1985 11.2569ZM89.1985 9.28258C88.7068 9.28258 88.3236 9.66744 88.3236 10.1772C88.3236 10.6957 88.7068 11.0774 89.1985 11.0774C89.6845 11.0774 90.0679 10.6957 90.0679 10.1772C90.0679 9.66744 89.6845 9.28258 89.1985 9.28258ZM89.3716 10.254L89.7245 10.8012H89.5139L89.187 10.2629H88.9713V10.8012H88.7836V9.55915H89.2556C89.5482 9.55915 89.6933 9.66744 89.6933 9.9123C89.6933 10.1343 89.5539 10.2312 89.3716 10.254ZM89.2273 9.7183H88.9713V10.1032H89.1959C89.3545 10.1032 89.4968 10.092 89.4968 9.90087C89.4968 9.74715 89.3579 9.7183 89.2273 9.7183ZM82.4042 12.3769L82.0962 13.3243H85.9433L85.0825 15.9492H81.2308L80.8988 16.9546H84.765L83.8419 19.76H76.0613L79.4659 9.41515H87.2322L86.2656 12.3769H82.4042ZM71.5122 19.76L70.3099 15.1114L68.8913 19.76H65.7465L62.091 19.7603L61.9827 17.8949H59.3513L58.3848 19.7603H52.1705L50.843 15.5926L49.5376 19.7603H45.5507L48.8667 9.41487H53.3376C56.8973 9.41487 57.3408 11.3806 57.0985 12.458C56.757 13.9854 56.1308 14.93 54.2913 15.4923L55.3353 17.7809L60.3708 9.41515H64.8808L65.5708 17.66L68.2422 9.41515H72.0508L73.2385 13.9972L74.6379 9.41515H78.6388L75.287 19.76H71.5122ZM52.8145 12.0814H51.9907L51.5713 13.4263H52.4545C53.1173 13.4183 53.4322 13.3083 53.5848 12.8206C53.7219 12.3834 53.3842 12.0814 52.8145 12.0814ZM61.8282 12.5374L60.4299 15.4703H61.8925L61.8282 12.5374ZM44.8862 12.5926L42.5788 19.76H38.6033L40.9108 12.5926H37.8156L38.837 9.41515H48.5596L47.5373 12.5926H44.8862ZM12.6722 15.3057L12.6727 15.306C12.6345 15.3059 12.5978 15.3209 12.5706 15.3477C12.5434 15.3746 12.5279 15.4112 12.5276 15.4494C12.5276 15.5286 12.5925 15.5932 12.6727 15.5932L30.3247 15.77C30.3012 16.2421 30.2546 16.7127 30.1853 17.1803L12.0313 17.34C11.9931 17.3399 11.9564 17.3549 11.9292 17.3818C11.9021 17.4087 11.8867 17.4452 11.8865 17.4834C11.8865 17.5626 11.9513 17.6269 12.0313 17.6269L30.0799 17.8009C29.9888 18.2792 29.874 18.7528 29.7359 19.2197L11.3907 19.374C11.3718 19.3739 11.353 19.3775 11.3355 19.3847C11.3179 19.3918 11.302 19.4023 11.2885 19.4157C11.275 19.429 11.2643 19.4448 11.2569 19.4623C11.2496 19.4798 11.2457 19.4985 11.2456 19.5174C11.2456 19.5966 11.3105 19.6609 11.3907 19.6609L29.5382 19.836C27.5036 25.7474 21.8407 29.9992 15.1727 29.9992C10.5285 29.9992 6.37303 27.9357 3.59018 24.6863L17.8265 25.0137L18.1162 24.0923L3.35161 24.4009C2.90408 23.8521 2.49601 23.2722 2.13046 22.6657L18.5576 22.9894L18.847 22.0686L1.95503 22.3683C1.63684 21.8118 1.3551 21.2353 1.11161 20.6423L19.1887 20.966L19.4782 20.0449L0.990464 20.3397C0.773513 19.7776 0.591266 19.2027 0.444749 18.6183L19.8296 18.9417L20.1187 18.0209L0.371606 18.3126C0.241846 17.7432 0.145774 17.1667 0.0838921 16.586L20.4607 16.9183L20.7499 15.9972L0.0556064 16.2946C0.00548986 15.7171 -0.0109189 15.1371 0.00646352 14.5577L21.099 14.8943L21.3879 13.9732L0.0181778 14.2737C0.0461778 13.6843 0.108178 13.104 0.203892 12.534L21.7373 12.8709L22.027 11.9497L0.254749 12.2486C1.56189 5.27887 7.74361 -0.000274658 15.1722 -0.000274658C21.413 -0.000274658 26.7739 3.72601 29.1033 9.0503L14.5885 9.20373C14.5695 9.20361 14.5507 9.20724 14.5331 9.2144C14.5155 9.22156 14.4995 9.23212 14.486 9.24546C14.4725 9.25881 14.4617 9.27468 14.4544 9.29218C14.447 9.30968 14.4431 9.32845 14.443 9.34744C14.443 9.42658 14.5082 9.4903 14.5885 9.4903L29.3562 9.66515C29.5359 10.1301 29.6913 10.6041 29.8219 11.0852L13.9476 11.2377C13.9287 11.2376 13.9099 11.2412 13.8923 11.2484C13.8748 11.2555 13.8588 11.2661 13.8453 11.2794C13.8319 11.2927 13.8211 11.3085 13.8138 11.326C13.8064 11.3435 13.8026 11.3622 13.8025 11.3812C13.8025 11.4606 13.8673 11.5249 13.9476 11.5249L29.975 11.6986C30.0816 12.1669 30.1651 12.6401 30.2253 13.1166L13.3136 13.2717C13.2946 13.2716 13.2758 13.2752 13.2582 13.2823C13.2406 13.2895 13.2246 13.3 13.2111 13.3134C13.1977 13.3268 13.1869 13.3426 13.1796 13.3602C13.1723 13.3777 13.1685 13.3965 13.1685 13.4154C13.1685 13.4943 13.2327 13.5589 13.3136 13.5589L30.291 13.7357C30.3306 14.2062 30.3481 14.6782 30.3433 15.1503L12.6722 15.3057Z" fill="white"/>
</g>
<defs>
<clipPath id="clip0_126_29">
<rect width="90.2857" height="30" fill="white"/>
</clipPath>
</defs>
</svg>
